<?xml version="1.0" encoding="UTF-8" standalone="no"?>
<!DOCTYPE svg PUBLIC "-//W3C//DTD SVG 1.1//EN"
 "http://www.w3.org/Graphics/SVG/1.1/DTD/svg11.dtd">
<!-- Generated by graphviz version 2.40.1 (20161225.0304)
 -->
<!-- Title: %3 Pages: 1 -->
<svg width="964pt" height="1103pt"
 viewBox="0.00 0.00 963.93 1103.00" xmlns="http://www.w3.org/2000/svg" xmlns:xlink="http://www.w3.org/1999/xlink">
<g id="graph0" class="graph" transform="scale(1 1) rotate(0) translate(4 1099)">
<title>%3</title>
<polygon fill="#ffffff" stroke="transparent" points="-4,4 -4,-1099 959.9308,-1099 959.9308,4 -4,4"/>
<g id="clust1" class="cluster">
<title>cluster1</title>
<polygon fill="none" stroke="transparent" points="98.6396,-8 98.6396,-896 947.9308,-896 947.9308,-8 98.6396,-8"/>
</g>
<g id="clust2" class="cluster">
<title>cluster2</title>
<polygon fill="none" stroke="#000000" points="8,-904 8,-1087 259.2791,-1087 259.2791,-904 8,-904"/>
<text text-anchor="middle" x="133.6396" y="-1071.8" font-family="Times,serif" font-size="14.00" fill="#000000">Legend</text>
</g>
<!-- linode -->
<g id="node1" class="node">
<title>linode</title>
<g id="a_node1"><a xlink:href="https://github.com/linode/docker-machine-driver-linode/" xlink:title="linode">
<ellipse fill="#ccccff" stroke="#000000" cx="776.5421" cy="-398" rx="32.4942" ry="18"/>
<text text-anchor="middle" x="776.5421" y="-394.3" font-family="Times,serif" font-size="14.00" fill="#000000">linode</text>
</a>
</g>
</g>
<!-- cloudca -->
<g id="node2" class="node">
<title>cloudca</title>
<g id="a_node2"><a xlink:href="https://github.com/cloud-ca/docker-machine-driver-cloudca" xlink:title="cloudca">
<ellipse fill="#ccccff" stroke="#000000" cx="776.5421" cy="-452" rx="38.1938" ry="18"/>
<text text-anchor="middle" x="776.5421" y="-448.3" font-family="Times,serif" font-size="14.00" fill="#000000">cloudca</text>
</a>
</g>
</g>
<!-- cloudscale -->
<g id="node3" class="node">
<title>cloudscale</title>
<g id="a_node3"><a xlink:href="https://github.com/cloudscale-ch/docker-machine-driver-cloudscale" xlink:title="cloudscale">
<ellipse fill="#ccccff" stroke="#000000" cx="776.5421" cy="-506" rx="48.1917" ry="18"/>
<text text-anchor="middle" x="776.5421" y="-502.3" font-family="Times,serif" font-size="14.00" fill="#000000">cloudscale</text>
</a>
</g>
</g>
<!-- oci -->
<g id="node4" class="node">
<title>oci</title>
<g id="a_node4"><a xlink:href="https://github.com/rancher-plugins/rancher-machine-driver-oci" xlink:title="oci">
<ellipse fill="#ccccff" stroke="#000000" cx="776.5421" cy="-560" rx="27" ry="18"/>
<text text-anchor="middle" x="776.5421" y="-556.3" font-family="Times,serif" font-size="14.00" fill="#000000">oci</text>
</a>
</g>
</g>
<!-- otc -->
<g id="node5" class="node">
<title>otc</title>
<g id="a_node5"><a xlink:href="https://github.com/rancher-plugins/rancher-machine-driver-otc" xlink:title="otc">
<ellipse fill="#ccccff" stroke="#000000" cx="776.5421" cy="-614" rx="27" ry="18"/>
<text text-anchor="middle" x="776.5421" y="-610.3" font-family="Times,serif" font-size="14.00" fill="#000000">otc</text>
</a>
</g>
</g>
<!-- packethost -->
<g id="node6" class="node">
<title>packethost</title>
<g id="a_node6"><a xlink:href="https://github.com/packethost/docker-machine-driver-packet" xlink:title="packethost">
<ellipse fill="#ccccff" stroke="#000000" cx="776.5421" cy="-668" rx="48.1917" ry="18"/>
<text text-anchor="middle" x="776.5421" y="-664.3" font-family="Times,serif" font-size="14.00" fill="#000000">packethost</text>
</a>
</g>
</g>
<!-- pnap -->
<g id="node7" class="node">
<title>pnap</title>
<g id="a_node7"><a xlink:href="https://github.com/phoenixnap/docker-machine-driver-pnap" xlink:title="pnap">
<ellipse fill="#ccccff" stroke="#000000" cx="776.5421" cy="-722" rx="27.8951" ry="18"/>
<text text-anchor="middle" x="776.5421" y="-718.3" font-family="Times,serif" font-size="14.00" fill="#000000">pnap</text>
</a>
</g>
</g>
<!-- pinganyun -->
<g id="node8" class="node">
<title>pinganyun</title>
<g id="a_node8"><a xlink:href="https://drivers.rancher.cn/node-driver-/0.3.0" xlink:title="pinganyun">
<ellipse fill="#ccccff" stroke="#000000" cx="776.5421" cy="-776" rx="48.1917" ry="18"/>
<text text-anchor="middle" x="776.5421" y="-772.3" font-family="Times,serif" font-size="14.00" fill="#000000">pinganyun</text>
</a>
</g>
</g>
<!-- go -->
<g id="node9" class="node">
<title>go</title>
<ellipse fill="#ccffcc" stroke="#000000" cx="776.5421" cy="-344" rx="27" ry="18"/>
<text text-anchor="middle" x="776.5421" y="-340.3" font-family="Times,serif" font-size="14.00" fill="#000000">go</text>
</g>
<!-- docker -->
<g id="node10" class="node">
<title>docker</title>
<ellipse fill="#ccffcc" stroke="#000000" cx="776.5421" cy="-290" rx="34.394" ry="18"/>
<text text-anchor="middle" x="776.5421" y="-286.3" font-family="Times,serif" font-size="14.00" fill="#000000">docker</text>
</g>
<!-- machine -->
<g id="node11" class="node">
<title>machine</title>
<g id="a_node11"><a xlink:href="https://github.com/rancher/machine" xlink:title="machine">
<ellipse fill="#ffcccc" stroke="#000000" cx="581.3062" cy="-398" rx="40.8928" ry="18"/>
<text text-anchor="middle" x="581.3062" y="-394.3" font-family="Times,serif" font-size="14.00" fill="#000000">machine</text>
</a>
</g>
</g>
<!-- machine&#45;&#45;linode -->
<g id="edge3" class="edge">
<title>machine&#45;&#45;linode</title>
<path fill="none" stroke="#000000" d="M622.7107,-398C658.8651,-398 710.6252,-398 743.9121,-398"/>
</g>
<!-- machine&#45;&#45;cloudca -->
<g id="edge4" class="edge">
<title>machine&#45;&#45;cloudca</title>
<path fill="none" stroke="#000000" d="M616.2105,-407.6541C652.1859,-417.6045 707.868,-433.0055 743.2432,-442.7899"/>
</g>
<!-- machine&#45;&#45;cloudscale -->
<g id="edge5" class="edge">
<title>machine&#45;&#45;cloudscale</title>
<path fill="none" stroke="#000000" d="M620.2155,-403.9963C636.4859,-407.9451 654.8654,-414.4256 669.0484,-425 692.1731,-442.241 682.4745,-461.0441 705.0484,-479 714.1859,-486.2682 725.4894,-491.7299 736.3899,-495.7683"/>
</g>
<!-- machine&#45;&#45;oci -->
<g id="edge6" class="edge">
<title>machine&#45;&#45;oci</title>
<path fill="none" stroke="#000000" d="M621.2408,-402.1768C637.8901,-405.7979 656.2805,-412.5252 669.0484,-425 705.2386,-460.3592 669.9821,-496.526 705.0484,-533 716.9104,-545.3381 734.9715,-552.0976 749.9722,-555.7678"/>
</g>
<!-- machine&#45;&#45;otc -->
<g id="edge7" class="edge">
<title>machine&#45;&#45;otc</title>
<path fill="none" stroke="#000000" d="M621.8669,-401.5681C638.6322,-405.0766 656.9401,-411.884 669.0484,-425 719.0787,-479.1939 656.7379,-531.2676 705.0484,-587 716.3459,-600.0331 734.6057,-606.7921 749.8434,-610.2881"/>
</g>
<!-- machine&#45;&#45;packethost -->
<g id="edge8" class="edge">
<title>machine&#45;&#45;packethost</title>
<path fill="none" stroke="#000000" d="M621.7537,-401.1734C638.7052,-404.5956 657.1905,-411.4448 669.0484,-425 733.1281,-498.2516 643.2915,-565.7798 705.0484,-641 712.2888,-649.8188 722.7329,-655.7595 733.4111,-659.7606"/>
</g>
<!-- machine&#45;&#45;pnap -->
<g id="edge9" class="edge">
<title>machine&#45;&#45;pnap</title>
<path fill="none" stroke="#000000" d="M621.962,-400.9942C638.9538,-404.3817 657.413,-411.2533 669.0484,-425 747.2618,-517.4049 629.7639,-600.1937 705.0484,-695 715.6919,-708.4034 733.7626,-715.1546 749.0726,-718.5543"/>
</g>
<!-- machine&#45;&#45;pinganyun -->
<g id="edge10" class="edge">
<title>machine&#45;&#45;pinganyun</title>
<path fill="none" stroke="#000000" d="M622.1035,-400.8757C639.1227,-404.2403 657.5642,-411.1268 669.0484,-425 761.4375,-536.6077 616.1959,-634.5569 705.0484,-749 712.0459,-758.0128 722.4102,-764.0171 733.0897,-768.0172"/>
</g>
<!-- machine&#45;&#45;go -->
<g id="edge2" class="edge">
<title>machine&#45;&#45;go</title>
<path fill="none" stroke="#000000" d="M616.2105,-388.3459C655.1473,-377.5764 717.1687,-360.422 751.5441,-350.9142"/>
</g>
<!-- machine&#45;&#45;docker -->
<g id="edge1" class="edge">
<title>machine&#45;&#45;docker</title>
<path fill="none" stroke="#000000" d="M620.2155,-392.0037C636.4859,-388.0549 654.8654,-381.5744 669.0484,-371 692.1731,-353.759 682.4745,-334.9559 705.0484,-317 716.5741,-307.8322 731.5459,-301.5385 744.8086,-297.3501"/>
</g>
<!-- alpine -->
<g id="node12" class="node">
<title>alpine</title>
<g id="a_node12"><a xlink:href="https://hub.docker.com/_/alpine" xlink:title="alpine">
<ellipse fill="#ccffcc" stroke="#000000" cx="776.5421" cy="-236" rx="32.4942" ry="18"/>
<text text-anchor="middle" x="776.5421" y="-232.3" font-family="Times,serif" font-size="14.00" fill="#000000">alpine</text>
</a>
</g>
</g>
<!-- telemetry -->
<g id="node13" class="node">
<title>telemetry</title>
<g id="a_node13"><a xlink:href="https://github.com/rancher/telemetry" xlink:title="telemetry">
<ellipse fill="#ffcccc" stroke="#000000" cx="581.3062" cy="-290" rx="44.6926" ry="18"/>
<text text-anchor="middle" x="581.3062" y="-286.3" font-family="Times,serif" font-size="14.00" fill="#000000">telemetry</text>
</a>
</g>
</g>
<!-- telemetry&#45;&#45;go -->
<g id="edge11" class="edge">
<title>telemetry&#45;&#45;go</title>
<path fill="none" stroke="#000000" d="M618.4881,-300.2841C657.5428,-311.0862 717.875,-327.7734 751.5806,-337.0959"/>
</g>
<!-- telemetry&#45;&#45;docker -->
<g id="edge12" class="edge">
<title>telemetry&#45;&#45;docker</title>
<path fill="none" stroke="#000000" d="M626.588,-290C661.7335,-290 709.729,-290 741.8628,-290"/>
</g>
<!-- telemetry&#45;&#45;alpine -->
<g id="edge13" class="edge">
<title>telemetry&#45;&#45;alpine</title>
<path fill="none" stroke="#000000" d="M618.4881,-279.7159C655.9939,-269.3422 713.1229,-253.541 747.4476,-244.0472"/>
</g>
<!-- rancher helm -->
<g id="node14" class="node">
<title>rancher helm</title>
<g id="a_node14"><a xlink:href="https://github.com/rancher/helm" xlink:title="rancher helm">
<ellipse fill="#ffcccc" stroke="#000000" cx="581.3062" cy="-560" rx="57.6901" ry="18"/>
<text text-anchor="middle" x="581.3062" y="-556.3" font-family="Times,serif" font-size="14.00" fill="#000000">rancher helm</text>
</a>
</g>
</g>
<!-- loglevel -->
<g id="node15" class="node">
<title>loglevel</title>
<g id="a_node15"><a xlink:href="hhttps://github.com/rancher/loglevel" xlink:title="loglevel">
<ellipse fill="#ffcccc" stroke="#000000" cx="581.3062" cy="-614" rx="38.9931" ry="18"/>
<text text-anchor="middle" x="581.3062" y="-610.3" font-family="Times,serif" font-size="14.00" fill="#000000">loglevel</text>
</a>
</g>
</g>
<!-- image build base -->
<g id="node16" class="node">
<title>image build base</title>
<g id="a_node16"><a xlink:href="https://github.com/rancher/image-build-base" xlink:title="image build base">
<ellipse fill="#ffcccc" stroke="#000000" cx="776.5421" cy="-830" rx="71.4873" ry="18"/>
<text text-anchor="middle" x="776.5421" y="-826.3" font-family="Times,serif" font-size="14.00" fill="#000000">image build base</text>
</a>
</g>
</g>
<!-- trivy -->
<g id="node17" class="node">
<title>trivy</title>
<g id="a_node17"><a xlink:href="https://github.com/aquasecurity/trivy" xlink:title="trivy">
<ellipse fill="#ccccff" stroke="#000000" cx="911.9833" cy="-91" rx="27.8951" ry="18"/>
<text text-anchor="middle" x="911.9833" y="-87.3" font-family="Times,serif" font-size="14.00" fill="#000000">trivy</text>
</a>
</g>
</g>
<!-- image build base&#45;&#45;trivy -->
<g id="edge14" class="edge">
<title>image build base&#45;&#45;trivy</title>
<path fill="none" stroke="#000000" d="M829.6268,-817.9018C836.735,-814.1899 843.2204,-809.3391 848.0358,-803 891.2965,-746.0502 908.4966,-214.4338 911.4939,-109.0909"/>
</g>
<!-- rancher coredns -->
<g id="node18" class="node">
<title>rancher coredns</title>
<g id="a_node18"><a xlink:href="https://github.com/rancher/image-build-coredns" xlink:title="rancher coredns">
<ellipse fill="#ffcccc" stroke="#000000" cx="581.3062" cy="-452" rx="66.8882" ry="18"/>
<text text-anchor="middle" x="581.3062" y="-448.3" font-family="Times,serif" font-size="14.00" fill="#000000">rancher coredns</text>
</a>
</g>
</g>
<!-- rancher coredns&#45;&#45;image build base -->
<g id="edge15" class="edge">
<title>rancher coredns&#45;&#45;image build base</title>
<path fill="none" stroke="#000000" d="M641.2399,-460.2649C651.8703,-464.3247 661.8327,-470.2832 669.0484,-479 761.4375,-590.6077 616.1959,-688.5569 705.0484,-803 709.9304,-809.288 716.4512,-814.1116 723.5744,-817.8119"/>
</g>
<!-- kubectl -->
<g id="node19" class="node">
<title>kubectl</title>
<g id="a_node19"><a xlink:href="https://storage.googleapis.com/kubernetes-release" xlink:title="kubectl">
<ellipse fill="#ccffcc" stroke="#000000" cx="776.5421" cy="-34" rx="37.0935" ry="18"/>
<text text-anchor="middle" x="776.5421" y="-30.3" font-family="Times,serif" font-size="14.00" fill="#000000">kubectl</text>
</a>
</g>
</g>
<!-- k9s -->
<g id="node20" class="node">
<title>k9s</title>
<g id="a_node20"><a xlink:href="https://github.com/derailed/k9s/releases" xlink:title="k9s">
<ellipse fill="#ccccff" stroke="#000000" cx="776.5421" cy="-128" rx="27" ry="18"/>
<text text-anchor="middle" x="776.5421" y="-124.3" font-family="Times,serif" font-size="14.00" fill="#000000">k9s</text>
</a>
</g>
</g>
<!-- shell -->
<g id="node21" class="node">
<title>shell</title>
<g id="a_node21"><a xlink:href="https://github.com/rancher/shell" xlink:title="shell">
<ellipse fill="#ffcccc" stroke="#000000" cx="581.3062" cy="-128" rx="27.0966" ry="18"/>
<text text-anchor="middle" x="581.3062" y="-124.3" font-family="Times,serif" font-size="14.00" fill="#000000">shell</text>
</a>
</g>
</g>
<!-- shell&#45;&#45;alpine -->
<g id="edge16" class="edge">
<title>shell&#45;&#45;alpine</title>
<path fill="none" stroke="#000000" d="M608.4066,-131.4663C626.9463,-134.9362 651.2878,-141.7582 669.0484,-155 692.1731,-172.241 682.4745,-191.0441 705.0484,-209 716.9895,-218.4982 732.6295,-224.9114 746.2355,-229.0945"/>
</g>
<!-- shell&#45;&#45;kubectl -->
<g id="edge17" class="edge">
<title>shell&#45;&#45;kubectl</title>
<path fill="none" stroke="#000000" d="M603.7023,-117.217C639.9603,-99.7599 711.3487,-65.3886 750.0657,-46.7475"/>
</g>
<!-- shell&#45;&#45;k9s -->
<g id="edge18" class="edge">
<title>shell&#45;&#45;k9s</title>
<path fill="none" stroke="#000000" d="M608.8647,-128C646.1791,-128 712.3594,-128 749.4379,-128"/>
</g>
<!-- metrics server -->
<g id="node22" class="node">
<title>metrics server</title>
<g id="a_node22"><a xlink:href="https://github.com/rancher/image-build-k8s-metrics-server" xlink:title="metrics server">
<ellipse fill="#ffcccc" stroke="#000000" cx="581.3062" cy="-506" rx="61.99" ry="18"/>
<text text-anchor="middle" x="581.3062" y="-502.3" font-family="Times,serif" font-size="14.00" fill="#000000">metrics server</text>
</a>
</g>
</g>
<!-- metrics server&#45;&#45;image build base -->
<g id="edge19" class="edge">
<title>metrics server&#45;&#45;image build base</title>
<path fill="none" stroke="#000000" d="M637.9268,-513.2454C649.7341,-517.298 661.0169,-523.5111 669.0484,-533 747.2618,-625.4049 629.7639,-708.1937 705.0484,-803 709.9989,-809.2342 716.5561,-814.0292 723.6949,-817.7173"/>
</g>
<!-- local path provisioner -->
<g id="node23" class="node">
<title>local path provisioner</title>
<g id="a_node23"><a xlink:href="https://github.com/rancher/local-path-provisioner" xlink:title="local path provisioner">
<ellipse fill="#ffcccc" stroke="#000000" cx="581.3062" cy="-236" rx="87.9851" ry="18"/>
<text text-anchor="middle" x="581.3062" y="-232.3" font-family="Times,serif" font-size="14.00" fill="#000000">local path provisioner</text>
</a>
</g>
</g>
<!-- local path provisioner&#45;&#45;alpine -->
<g id="edge20" class="edge">
<title>local path provisioner&#45;&#45;alpine</title>
<path fill="none" stroke="#000000" d="M669.2148,-236C695.7324,-236 723.2152,-236 743.7316,-236"/>
</g>
<!-- helm -->
<g id="node24" class="node">
<title>helm</title>
<g id="a_node24"><a xlink:href="https://get.helm.sh" xlink:title="helm">
<ellipse fill="#ccffcc" stroke="#000000" cx="776.5421" cy="-182" rx="28.6953" ry="18"/>
<text text-anchor="middle" x="776.5421" y="-178.3" font-family="Times,serif" font-size="14.00" fill="#000000">helm</text>
</a>
</g>
</g>
<!-- fleet -->
<g id="node25" class="node">
<title>fleet</title>
<g id="a_node25"><a xlink:href="https://github.com/rancher/fleet" xlink:title="fleet">
<ellipse fill="#ffcccc" stroke="#000000" cx="581.3062" cy="-182" rx="27" ry="18"/>
<text text-anchor="middle" x="581.3062" y="-178.3" font-family="Times,serif" font-size="14.00" fill="#000000">fleet</text>
</a>
</g>
</g>
<!-- fleet&#45;&#45;alpine -->
<g id="edge22" class="edge">
<title>fleet&#45;&#45;alpine</title>
<path fill="none" stroke="#000000" d="M606.4302,-188.949C642.5792,-198.9474 709.1128,-217.3498 747.3817,-227.9346"/>
</g>
<!-- fleet&#45;&#45;helm -->
<g id="edge21" class="edge">
<title>fleet&#45;&#45;helm</title>
<path fill="none" stroke="#000000" d="M608.4529,-182C645.1247,-182 710.2074,-182 747.7213,-182"/>
</g>
<!-- agent -->
<g id="node26" class="node">
<title>agent</title>
<g id="a_node26"><a xlink:href="https://github.com/rancher/agent" xlink:title="agent">
<ellipse fill="#ffcccc" stroke="#000000" cx="581.3062" cy="-344" rx="29.795" ry="18"/>
<text text-anchor="middle" x="581.3062" y="-340.3" font-family="Times,serif" font-size="14.00" fill="#000000">agent</text>
</a>
</g>
</g>
<!-- agent&#45;&#45;docker -->
<g id="edge23" class="edge">
<title>agent&#45;&#45;docker</title>
<path fill="none" stroke="#000000" d="M608.8647,-336.3776C645.0229,-326.3767 708.2858,-308.8789 745.909,-298.4728"/>
</g>
<!-- k3s -->
<g id="node27" class="node">
<title>k3s</title>
<g id="a_node27"><a xlink:href="https://github.com/k3s-io/k3s" xlink:title="k3s">
<ellipse fill="#ccccff" stroke="#000000" cx="581.3062" cy="-54" rx="27" ry="18"/>
<text text-anchor="middle" x="581.3062" y="-50.3" font-family="Times,serif" font-size="14.00" fill="#000000">k3s</text>
</a>
</g>
</g>
<!-- k3s&#45;&#45;alpine -->
<g id="edge25" class="edge">
<title>k3s&#45;&#45;alpine</title>
<path fill="none" stroke="#000000" d="M606.1774,-61.596C625.8142,-68.7918 652.5646,-81.4451 669.0484,-101 701.6587,-139.6856 669.9821,-172.526 705.0484,-209 715.715,-220.0948 731.3943,-226.6786 745.3533,-230.5615"/>
</g>
<!-- k3s&#45;&#45;trivy -->
<g id="edge24" class="edge">
<title>k3s&#45;&#45;trivy</title>
<path fill="none" stroke="#000000" d="M608.0868,-56.9965C669.7428,-63.8953 821.2327,-80.8458 884.0199,-87.8711"/>
</g>
<!-- Rancher MCM -->
<g id="node28" class="node">
<title>Rancher MCM</title>
<g id="a_node28"><a xlink:href="https://github.com/rancher/rancher" xlink:title="Rancher MCM">
<ellipse fill="none" stroke="#000000" cx="372.4216" cy="-317" rx="64.9885" ry="18"/>
<text text-anchor="middle" x="372.4216" y="-313.3" font-family="Times,serif" font-size="14.00" fill="#000000">Rancher MCM</text>
</a>
</g>
</g>
<!-- Rancher MCM&#45;&#45;machine -->
<g id="edge26" class="edge">
<title>Rancher MCM&#45;&#45;machine</title>
<path fill="none" stroke="#000000" d="M404.6277,-332.6348C428.7865,-344.0479 462.8421,-359.474 493.564,-371 510.7247,-377.4382 530.1737,-383.5406 546.3922,-388.3097"/>
</g>
<!-- Rancher MCM&#45;&#45;telemetry -->
<g id="edge27" class="edge">
<title>Rancher MCM&#45;&#45;telemetry</title>
<path fill="none" stroke="#000000" d="M431.442,-309.3711C465.4635,-304.9736 507.471,-299.5438 538.3466,-295.5529"/>
</g>
<!-- Rancher MCM&#45;&#45;rancher helm -->
<g id="edge28" class="edge">
<title>Rancher MCM&#45;&#45;rancher helm</title>
<path fill="none" stroke="#000000" d="M377.482,-335.11C389.988,-376.5192 426.3168,-478.7204 493.564,-533 504.1057,-541.5089 517.3202,-547.3439 530.2703,-551.3427"/>
</g>
<!-- Rancher MCM&#45;&#45;loglevel -->
<g id="edge29" class="edge">
<title>Rancher MCM&#45;&#45;loglevel</title>
<path fill="none" stroke="#000000" d="M375.2787,-335.1481C383.8523,-383.5069 413.8751,-516.5721 493.564,-587 507.2977,-599.1377 526.3987,-605.8189 543.2734,-609.4967"/>
</g>
<!-- Rancher MCM&#45;&#45;trivy -->
<g id="edge36" class="edge">
<title>Rancher MCM&#45;&#45;trivy</title>
<path fill="none" stroke="#000000" d="M388.8505,-299.4152C407.6373,-278.524 438.2783,-241.9568 457.564,-206 480.8821,-162.5253 453.7653,-130.152 493.564,-101 524.8522,-78.0819 794.9758,-86.4352 883.8029,-89.8404"/>
</g>
<!-- Rancher MCM&#45;&#45;rancher coredns -->
<g id="edge30" class="edge">
<title>Rancher MCM&#45;&#45;rancher coredns</title>
<path fill="none" stroke="#000000" d="M387.499,-334.5102C408.8395,-358.2562 450.1197,-400.5096 493.564,-425 504.81,-431.3395 517.7234,-436.3704 530.1234,-440.286"/>
</g>
<!-- Rancher MCM&#45;&#45;shell -->
<g id="edge31" class="edge">
<title>Rancher MCM&#45;&#45;shell</title>
<path fill="none" stroke="#000000" d="M381.0136,-298.9676C397.8576,-265.5386 438.4364,-193.8273 493.564,-155 511.6763,-142.2433 535.9875,-135.3795 554.4262,-131.7703"/>
</g>
<!-- Rancher MCM&#45;&#45;metrics server -->
<g id="edge32" class="edge">
<title>Rancher MCM&#45;&#45;metrics server</title>
<path fill="none" stroke="#000000" d="M381.0136,-335.0324C397.8576,-368.4614 438.4364,-440.1727 493.564,-479 504.2489,-486.5256 517.0912,-492.0003 529.6125,-495.9658"/>
</g>
<!-- Rancher MCM&#45;&#45;local path provisioner -->
<g id="edge33" class="edge">
<title>Rancher MCM&#45;&#45;local path provisioner</title>
<path fill="none" stroke="#000000" d="M404.6277,-301.3652C428.7865,-289.9521 462.8421,-274.526 493.564,-263 505.2034,-258.6332 517.8956,-254.4209 529.9184,-250.6743"/>
</g>
<!-- Rancher MCM&#45;&#45;fleet -->
<g id="edge34" class="edge">
<title>Rancher MCM&#45;&#45;fleet</title>
<path fill="none" stroke="#000000" d="M387.499,-299.4898C408.8395,-275.7438 450.1197,-233.4904 493.564,-209 512.8626,-198.121 537.0719,-191.0959 555.1696,-186.9469"/>
</g>
<!-- Rancher MCM&#45;&#45;agent -->
<g id="edge35" class="edge">
<title>Rancher MCM&#45;&#45;agent</title>
<path fill="none" stroke="#000000" d="M431.442,-324.6289C470.7718,-329.7125 520.7741,-336.1757 551.9135,-340.2008"/>
</g>
<!-- Rancher MCM&#45;&#45;k3s -->
<g id="edge37" class="edge">
<title>Rancher MCM&#45;&#45;k3s</title>
<path fill="none" stroke="#000000" d="M383.978,-299.1248C401.1548,-272.1755 433.9317,-219.2592 457.564,-172 476.0965,-134.9394 463.5879,-114.6072 493.564,-86 510.338,-69.992 535.7503,-61.8831 554.9163,-57.8434"/>
</g>
<!-- rke2 -->
<g id="node29" class="node">
<title>rke2</title>
<g id="a_node29"><a xlink:href="https://github.com/rancher/rke2" xlink:title="rke2">
<ellipse fill="none" stroke="#000000" cx="133.6396" cy="-651" rx="27" ry="18"/>
<text text-anchor="middle" x="133.6396" y="-647.3" font-family="Times,serif" font-size="14.00" fill="#000000">rke2</text>
</a>
</g>
</g>
<!-- rke2&#45;&#45;image build base -->
<g id="edge45" class="edge">
<title>rke2&#45;&#45;image build base</title>
<path fill="none" stroke="#000000" d="M146.8838,-667.039C171.7158,-696.2286 228.1254,-758.4737 287.2791,-796 370.4515,-848.7634 396.7859,-858.6803 493.564,-877 570.1962,-891.5061 592.7059,-892.9604 669.0484,-877 696.9602,-871.1647 726.4918,-857.6554 747.524,-846.6106"/>
</g>
<!-- rke2&#45;&#45;kubectl -->
<g id="edge47" class="edge">
<title>rke2&#45;&#45;kubectl</title>
<path fill="none" stroke="#000000" d="M136.5503,-632.9179C150.5334,-548.0303 213.1891,-189.7664 287.2791,-108 406.685,23.7773 652.881,-9.171 742.7533,-26.6119"/>
</g>
<!-- rke2&#45;&#45;k3s -->
<g id="edge46" class="edge">
<title>rke2&#45;&#45;k3s</title>
<path fill="none" stroke="#000000" d="M138.5047,-633.259C154.0235,-578.6315 206.1416,-409.4499 287.2791,-290 359.7306,-183.3377 384.6452,-155.0128 493.564,-86 512.8761,-73.7635 537.5322,-65.2988 555.787,-60.163"/>
</g>
<!-- rke2&#45;runtime -->
<g id="node30" class="node">
<title>rke2&#45;runtime</title>
<g id="a_node30"><a xlink:href="https://github.com/rancher/rke2" xlink:title="rke2&#45;runtime">
<ellipse fill="#ffcccc" stroke="#000000" cx="372.4216" cy="-769" rx="57.6901" ry="18"/>
<text text-anchor="middle" x="372.4216" y="-765.3" font-family="Times,serif" font-size="14.00" fill="#000000">rke2&#45;runtime</text>
</a>
</g>
</g>
<!-- rke2&#45;&#45;rke2&#45;runtime -->
<g id="edge38" class="edge">
<title>rke2&#45;&#45;rke2&#45;runtime</title>
<path fill="none" stroke="#000000" d="M155.6756,-661.8896C198.3936,-682.9998 292.5625,-729.5357 341.5109,-753.7247"/>
</g>
<!-- crane -->
<g id="node34" class="node">
<title>crane</title>
<g id="a_node34"><a xlink:href="https://github.com/google/go-containerregistry" xlink:title="crane">
<ellipse fill="#ccccff" stroke="#000000" cx="372.4216" cy="-624" rx="29.795" ry="18"/>
<text text-anchor="middle" x="372.4216" y="-620.3" font-family="Times,serif" font-size="14.00" fill="#000000">crane</text>
</a>
</g>
</g>
<!-- rke2&#45;&#45;crane -->
<g id="edge48" class="edge">
<title>rke2&#45;&#45;crane</title>
<path fill="none" stroke="#000000" d="M160.5667,-647.9552C205.6949,-642.8524 296.2361,-632.6146 342.987,-627.3283"/>
</g>
<!-- hardened&#45;kubernetes -->
<g id="node35" class="node">
<title>hardened&#45;kubernetes</title>
<g id="a_node35"><a xlink:href="https://github.com/rancher/image-build-kubernetes" xlink:title="hardened&#45;kubernetes">
<ellipse fill="#ffcccc" stroke="#000000" cx="372.4216" cy="-678" rx="85.2851" ry="18"/>
<text text-anchor="middle" x="372.4216" y="-674.3" font-family="Times,serif" font-size="14.00" fill="#000000">hardened&#45;kubernetes</text>
</a>
</g>
</g>
<!-- rke2&#45;&#45;hardened&#45;kubernetes -->
<g id="edge49" class="edge">
<title>rke2&#45;&#45;hardened&#45;kubernetes</title>
<path fill="none" stroke="#000000" d="M160.5667,-654.0448C193.4981,-657.7684 250.6121,-664.2265 297.2458,-669.4996"/>
</g>
<!-- hardened&#45;containerd -->
<g id="node31" class="node">
<title>hardened&#45;containerd</title>
<g id="a_node31"><a xlink:href="https://github.com/rancher/image-build-containerd" xlink:title="hardened&#45;containerd">
<ellipse fill="#ffcccc" stroke="#000000" cx="581.3062" cy="-796" rx="83.3857" ry="18"/>
<text text-anchor="middle" x="581.3062" y="-792.3" font-family="Times,serif" font-size="14.00" fill="#000000">hardened&#45;containerd</text>
</a>
</g>
</g>
<!-- rke2&#45;runtime&#45;&#45;hardened&#45;containerd -->
<g id="edge42" class="edge">
<title>rke2&#45;runtime&#45;&#45;hardened&#45;containerd</title>
<path fill="none" stroke="#000000" d="M425.9433,-775.9181C451.4486,-779.2149 482.3179,-783.205 509.7984,-786.757"/>
</g>
<!-- hardened&#45;runc -->
<g id="node32" class="node">
<title>hardened&#45;runc</title>
<g id="a_node32"><a xlink:href="https://github.com/rancher/image-build-runc" xlink:title="hardened&#45;runc">
<ellipse fill="#ffcccc" stroke="#000000" cx="581.3062" cy="-850" rx="61.99" ry="18"/>
<text text-anchor="middle" x="581.3062" y="-846.3" font-family="Times,serif" font-size="14.00" fill="#000000">hardened&#45;runc</text>
</a>
</g>
</g>
<!-- rke2&#45;runtime&#45;&#45;hardened&#45;runc -->
<g id="edge43" class="edge">
<title>rke2&#45;runtime&#45;&#45;hardened&#45;runc</title>
<path fill="none" stroke="#000000" d="M403.8681,-784.2758C428.0692,-795.7227 462.5188,-811.3527 493.564,-823 507.4418,-828.2065 522.8161,-833.1935 536.7681,-837.4333"/>
</g>
<!-- hardened&#45;crictl -->
<g id="node33" class="node">
<title>hardened&#45;crictl</title>
<g id="a_node33"><a xlink:href="https://github.com/rancher/image-build-crictl" xlink:title="hardened&#45;crictl">
<ellipse fill="#ffcccc" stroke="#000000" cx="581.3062" cy="-742" rx="64.189" ry="18"/>
<text text-anchor="middle" x="581.3062" y="-738.3" font-family="Times,serif" font-size="14.00" fill="#000000">hardened&#45;crictl</text>
</a>
</g>
</g>
<!-- rke2&#45;runtime&#45;&#45;hardened&#45;crictl -->
<g id="edge44" class="edge">
<title>rke2&#45;runtime&#45;&#45;hardened&#45;crictl</title>
<path fill="none" stroke="#000000" d="M425.9433,-762.0819C455.5584,-758.2539 492.4055,-753.4911 522.7822,-749.5647"/>
</g>
<!-- hardened&#45;containerd&#45;&#45;image build base -->
<g id="edge39" class="edge">
<title>hardened&#45;containerd&#45;&#45;image build base</title>
<path fill="none" stroke="#000000" d="M646.3169,-807.3215C669.3896,-811.3396 695.208,-815.8358 717.7333,-819.7585"/>
</g>
<!-- hardened&#45;runc&#45;&#45;image build base -->
<g id="edge40" class="edge">
<title>hardened&#45;runc&#45;&#45;image build base</title>
<path fill="none" stroke="#000000" d="M639.619,-844.0264C661.8667,-841.7474 687.3842,-839.1334 710.3154,-836.7843"/>
</g>
<!-- hardened&#45;crictl&#45;&#45;image build base -->
<g id="edge41" class="edge">
<title>hardened&#45;crictl&#45;&#45;image build base</title>
<path fill="none" stroke="#000000" d="M631.701,-753.2001C644.378,-757.1592 657.6193,-762.3391 669.0484,-769 688.0627,-780.0816 686.3901,-791.329 705.0484,-803 713.0348,-807.9956 722.0905,-812.297 731.0081,-815.905"/>
</g>
<!-- hardened&#45;kubernetes&#45;&#45;image build base -->
<g id="edge51" class="edge">
<title>hardened&#45;kubernetes&#45;&#45;image build base</title>
<path fill="none" stroke="#000000" d="M442.8442,-688.1971C459.4654,-690.5166 477.1308,-692.9109 493.564,-695 532.4996,-699.9498 637.755,-691.3102 669.0484,-715 702.7404,-740.5055 674.7641,-773.529 705.0484,-803 711.0388,-808.8295 718.4106,-813.4249 726.1211,-817.0407"/>
</g>
<!-- k3s&#45;root -->
<g id="node36" class="node">
<title>k3s&#45;root</title>
<g id="a_node36"><a xlink:href="https://github.com/k3s-io/k3s-root" xlink:title="k3s&#45;root">
<ellipse fill="#ccccff" stroke="#000000" cx="581.3062" cy="-668" rx="40.0939" ry="18"/>
<text text-anchor="middle" x="581.3062" y="-664.3" font-family="Times,serif" font-size="14.00" fill="#000000">k3s&#45;root</text>
</a>
</g>
</g>
<!-- hardened&#45;kubernetes&#45;&#45;k3s&#45;root -->
<g id="edge50" class="edge">
<title>hardened&#45;kubernetes&#45;&#45;k3s&#45;root</title>
<path fill="none" stroke="#000000" d="M455.5785,-674.019C485.0454,-672.6083 516.873,-671.0846 541.1326,-669.9232"/>
</g>
<!-- rancher -->
<g id="node37" class="node">
<title>rancher</title>
<ellipse fill="#ffcccc" stroke="#000000" cx="133.6396" cy="-1038" rx="37.0935" ry="18"/>
<text text-anchor="middle" x="133.6396" y="-1034.3" font-family="Times,serif" font-size="14.00" fill="#000000">rancher</text>
</g>
<!-- external without s390x binary -->
<g id="node38" class="node">
<title>external without s390x binary</title>
<ellipse fill="#ccccff" stroke="#000000" cx="133.6396" cy="-984" rx="117.7793" ry="18"/>
<text text-anchor="middle" x="133.6396" y="-980.3" font-family="Times,serif" font-size="14.00" fill="#000000">external without s390x binary</text>
</g>
<!-- external with s390x binary -->
<g id="node39" class="node">
<title>external with s390x binary</title>
<ellipse fill="#ccffcc" stroke="#000000" cx="133.6396" cy="-930" rx="106.6812" ry="18"/>
<text text-anchor="middle" x="133.6396" y="-926.3" font-family="Times,serif" font-size="14.00" fill="#000000">external with s390x binary</text>
</g>
</g>
</svg>
