<?xml version="1.0" encoding="UTF-8" standalone="no"?>
<!DOCTYPE svg PUBLIC "-//W3C//DTD SVG 1.1//EN"
 "http://www.w3.org/Graphics/SVG/1.1/DTD/svg11.dtd">
<!-- Generated by graphviz version 2.40.1 (20161225.0304)
 -->
<!-- Title: %3 Pages: 1 -->
<svg width="781pt" height="1279pt"
 viewBox="0.00 0.00 781.04 1279.00" xmlns="http://www.w3.org/2000/svg" xmlns:xlink="http://www.w3.org/1999/xlink">
<g id="graph0" class="graph" transform="scale(1 1) rotate(0) translate(4 1275)">
<title>%3</title>
<polygon fill="#ffffff" stroke="transparent" points="-4,4 -4,-1275 777.0438,-1275 777.0438,4 -4,4"/>
<g id="clust1" class="cluster">
<title>cluster1</title>
<polygon fill="none" stroke="transparent" points="60.6453,-8 60.6453,-1072 765.0438,-1072 765.0438,-8 60.6453,-8"/>
</g>
<g id="clust2" class="cluster">
<title>cluster2</title>
<polygon fill="none" stroke="#000000" points="8,-1080 8,-1263 259.2791,-1263 259.2791,-1080 8,-1080"/>
<text text-anchor="middle" x="133.6396" y="-1247.8" font-family="Times,serif" font-size="14.00" fill="#000000">Legend</text>
</g>
<!-- linode -->
<g id="node1" class="node">
<title>linode</title>
<g id="a_node1"><a xlink:href="https://github.com/linode/docker-machine-driver-linode/" xlink:title="linode">
<ellipse fill="#ccccff" stroke="#000000" cx="581.9562" cy="-810" rx="32.4942" ry="18"/>
<text text-anchor="middle" x="581.9562" y="-806.3" font-family="Times,serif" font-size="14.00" fill="#000000">linode</text>
</a>
</g>
</g>
<!-- cloudca -->
<g id="node2" class="node">
<title>cloudca</title>
<g id="a_node2"><a xlink:href="https://github.com/cloud-ca/docker-machine-driver-cloudca" xlink:title="cloudca">
<ellipse fill="#ccccff" stroke="#000000" cx="581.9562" cy="-864" rx="38.1938" ry="18"/>
<text text-anchor="middle" x="581.9562" y="-860.3" font-family="Times,serif" font-size="14.00" fill="#000000">cloudca</text>
</a>
</g>
</g>
<!-- cloudscale -->
<g id="node3" class="node">
<title>cloudscale</title>
<g id="a_node3"><a xlink:href="https://github.com/cloudscale-ch/docker-machine-driver-cloudscale" xlink:title="cloudscale">
<ellipse fill="#ccccff" stroke="#000000" cx="581.9562" cy="-918" rx="48.1917" ry="18"/>
<text text-anchor="middle" x="581.9562" y="-914.3" font-family="Times,serif" font-size="14.00" fill="#000000">cloudscale</text>
</a>
</g>
</g>
<!-- oci -->
<g id="node4" class="node">
<title>oci</title>
<g id="a_node4"><a xlink:href="https://github.com/rancher-plugins/rancher-machine-driver-oci" xlink:title="oci">
<ellipse fill="#ccccff" stroke="#000000" cx="581.9562" cy="-972" rx="27" ry="18"/>
<text text-anchor="middle" x="581.9562" y="-968.3" font-family="Times,serif" font-size="14.00" fill="#000000">oci</text>
</a>
</g>
</g>
<!-- otc -->
<g id="node5" class="node">
<title>otc</title>
<g id="a_node5"><a xlink:href="https://github.com/rancher-plugins/rancher-machine-driver-otc" xlink:title="otc">
<ellipse fill="#ccccff" stroke="#000000" cx="581.9562" cy="-1026" rx="27" ry="18"/>
<text text-anchor="middle" x="581.9562" y="-1022.3" font-family="Times,serif" font-size="14.00" fill="#000000">otc</text>
</a>
</g>
</g>
<!-- packethost -->
<g id="node6" class="node">
<title>packethost</title>
<g id="a_node6"><a xlink:href="https://github.com/packethost/docker-machine-driver-packet" xlink:title="packethost">
<ellipse fill="#ccccff" stroke="#000000" cx="581.9562" cy="-648" rx="48.1917" ry="18"/>
<text text-anchor="middle" x="581.9562" y="-644.3" font-family="Times,serif" font-size="14.00" fill="#000000">packethost</text>
</a>
</g>
</g>
<!-- pnap -->
<g id="node7" class="node">
<title>pnap</title>
<g id="a_node7"><a xlink:href="https://github.com/phoenixnap/docker-machine-driver-pnap" xlink:title="pnap">
<ellipse fill="#ccccff" stroke="#000000" cx="581.9562" cy="-702" rx="27.8951" ry="18"/>
<text text-anchor="middle" x="581.9562" y="-698.3" font-family="Times,serif" font-size="14.00" fill="#000000">pnap</text>
</a>
</g>
</g>
<!-- pinganyun -->
<g id="node8" class="node">
<title>pinganyun</title>
<g id="a_node8"><a xlink:href="https://drivers.rancher.cn/node-driver-/0.3.0" xlink:title="pinganyun">
<ellipse fill="#ccccff" stroke="#000000" cx="581.9562" cy="-756" rx="48.1917" ry="18"/>
<text text-anchor="middle" x="581.9562" y="-752.3" font-family="Times,serif" font-size="14.00" fill="#000000">pinganyun</text>
</a>
</g>
</g>
<!-- go -->
<g id="node9" class="node">
<title>go</title>
<ellipse fill="#ccffcc" stroke="#000000" cx="581.9562" cy="-594" rx="27" ry="18"/>
<text text-anchor="middle" x="581.9562" y="-590.3" font-family="Times,serif" font-size="14.00" fill="#000000">go</text>
</g>
<!-- docker -->
<g id="node10" class="node">
<title>docker</title>
<ellipse fill="#ccffcc" stroke="#000000" cx="581.9562" cy="-540" rx="34.394" ry="18"/>
<text text-anchor="middle" x="581.9562" y="-536.3" font-family="Times,serif" font-size="14.00" fill="#000000">docker</text>
</g>
<!-- machine -->
<g id="node11" class="node">
<title>machine</title>
<g id="a_node11"><a xlink:href="https://github.com/rancher/machine" xlink:title="machine">
<ellipse fill="#ffcccc" stroke="#000000" cx="375.0213" cy="-830" rx="40.8928" ry="18"/>
<text text-anchor="middle" x="375.0213" y="-826.3" font-family="Times,serif" font-size="14.00" fill="#000000">machine</text>
</a>
</g>
</g>
<!-- machine&#45;&#45;linode -->
<g id="edge3" class="edge">
<title>machine&#45;&#45;linode</title>
<path fill="none" stroke="#000000" d="M415.4117,-826.0963C454.697,-822.2994 513.6007,-816.6065 549.8089,-813.107"/>
</g>
<!-- machine&#45;&#45;cloudca -->
<g id="edge4" class="edge">
<title>machine&#45;&#45;cloudca</title>
<path fill="none" stroke="#000000" d="M413.4592,-836.3155C451.2124,-842.5184 508.3907,-851.913 545.4599,-858.0036"/>
</g>
<!-- machine&#45;&#45;cloudscale -->
<g id="edge5" class="edge">
<title>machine&#45;&#45;cloudscale</title>
<path fill="none" stroke="#000000" d="M401.0687,-844.2138C425.7693,-857.3608 464.1471,-876.9359 498.7636,-891 513.2536,-896.8871 529.551,-902.4077 543.8557,-906.9037"/>
</g>
<!-- machine&#45;&#45;oci -->
<g id="edge6" class="edge">
<title>machine&#45;&#45;oci</title>
<path fill="none" stroke="#000000" d="M389.2301,-847.3165C410.564,-872.2647 453.2506,-918.253 498.7636,-945 516.568,-955.4633 538.9343,-962.4294 555.9907,-966.6611"/>
</g>
<!-- machine&#45;&#45;otc -->
<g id="edge7" class="edge">
<title>machine&#45;&#45;otc</title>
<path fill="none" stroke="#000000" d="M383.2223,-847.6602C400.0154,-881.9171 441.6064,-957.6486 498.7636,-999 515.6183,-1011.1938 538.2589,-1018.0691 555.6656,-1021.826"/>
</g>
<!-- machine&#45;&#45;packethost -->
<g id="edge8" class="edge">
<title>machine&#45;&#45;packethost</title>
<path fill="none" stroke="#000000" d="M415.241,-826.1082C431.9432,-822.5398 450.296,-815.775 462.7636,-803 504.0388,-760.707 457.813,-717.6075 498.7636,-675 508.7597,-664.5994 522.7933,-658.1998 536.4913,-654.264"/>
</g>
<!-- machine&#45;&#45;pnap -->
<g id="edge9" class="edge">
<title>machine&#45;&#45;pnap</title>
<path fill="none" stroke="#000000" d="M414.6494,-824.9026C431.047,-821.113 449.3274,-814.5084 462.7636,-803 490.5413,-779.2076 471.1686,-753.0042 498.7636,-729 514.2302,-715.546 536.5195,-708.7733 554.1346,-705.3766"/>
</g>
<!-- machine&#45;&#45;pinganyun -->
<g id="edge10" class="edge">
<title>machine&#45;&#45;pinganyun</title>
<path fill="none" stroke="#000000" d="M410.6328,-820.8683C426.8208,-816.2557 446.0485,-810.1225 462.7636,-803 479.6019,-795.825 481.9805,-790.3036 498.7636,-783 512.9655,-776.8196 529.0573,-771.2779 543.2784,-766.8471"/>
</g>
<!-- machine&#45;&#45;go -->
<g id="edge2" class="edge">
<title>machine&#45;&#45;go</title>
<path fill="none" stroke="#000000" d="M415.2789,-826.6579C432.1937,-823.2031 450.7027,-816.375 462.7636,-803 517.9827,-741.7639 444.0144,-682.6567 498.7636,-621 512.8789,-605.1038 536.4362,-598.5191 554.8868,-595.8156"/>
</g>
<!-- machine&#45;&#45;docker -->
<g id="edge1" class="edge">
<title>machine&#45;&#45;docker</title>
<path fill="none" stroke="#000000" d="M415.5565,-826.9027C432.5249,-823.4953 450.9992,-816.6366 462.7636,-803 532.0712,-722.6624 430.0725,-647.8654 498.7636,-567 510.8553,-552.7652 530.5327,-545.9762 547.715,-542.7641"/>
</g>
<!-- alpine -->
<g id="node12" class="node">
<title>alpine</title>
<g id="a_node12"><a xlink:href="https://hub.docker.com/_/alpine" xlink:title="alpine">
<ellipse fill="#ccccff" stroke="#000000" cx="581.9562" cy="-378" rx="32.4942" ry="18"/>
<text text-anchor="middle" x="581.9562" y="-374.3" font-family="Times,serif" font-size="14.00" fill="#000000">alpine</text>
</a>
</g>
</g>
<!-- telemetry -->
<g id="node13" class="node">
<title>telemetry</title>
<g id="a_node13"><a xlink:href="https://github.com/rancher/telemetry" xlink:title="telemetry">
<ellipse fill="#ffcccc" stroke="#000000" cx="375.0213" cy="-776" rx="44.6926" ry="18"/>
<text text-anchor="middle" x="375.0213" y="-772.3" font-family="Times,serif" font-size="14.00" fill="#000000">telemetry</text>
</a>
</g>
</g>
<!-- telemetry&#45;&#45;go -->
<g id="edge11" class="edge">
<title>telemetry&#45;&#45;go</title>
<path fill="none" stroke="#000000" d="M418.3902,-771.401C434.2143,-767.6707 451.0752,-760.9765 462.7636,-749 504.0388,-706.707 457.813,-663.6075 498.7636,-621 513.3895,-605.7822 536.659,-599.13 554.8738,-596.2281"/>
</g>
<!-- telemetry&#45;&#45;docker -->
<g id="edge12" class="edge">
<title>telemetry&#45;&#45;docker</title>
<path fill="none" stroke="#000000" d="M418.8926,-771.8723C434.7821,-768.2035 451.5566,-761.4281 462.7636,-749 517.9827,-687.7639 444.0144,-628.6567 498.7636,-567 511.1649,-553.034 530.8543,-546.2555 547.9656,-542.9818"/>
</g>
<!-- telemetry&#45;&#45;alpine -->
<g id="edge13" class="edge">
<title>telemetry&#45;&#45;alpine</title>
<path fill="none" stroke="#000000" d="M419.0387,-772.493C435.1447,-768.9199 452.0323,-762.0482 462.7636,-749 560.4095,-630.2722 402.0287,-524.4713 498.7636,-405 510.9945,-389.8943 531.7927,-383.1443 549.5331,-380.1707"/>
</g>
<!-- rancher helm -->
<g id="node14" class="node">
<title>rancher helm</title>
<g id="a_node14"><a xlink:href="https://github.com/rancher/helm" xlink:title="rancher helm">
<ellipse fill="#ffcccc" stroke="#000000" cx="375.0213" cy="-506" rx="57.6901" ry="18"/>
<text text-anchor="middle" x="375.0213" y="-502.3" font-family="Times,serif" font-size="14.00" fill="#000000">rancher helm</text>
</a>
</g>
</g>
<!-- loglevel -->
<g id="node15" class="node">
<title>loglevel</title>
<g id="a_node15"><a xlink:href="hhttps://github.com/rancher/loglevel" xlink:title="loglevel">
<ellipse fill="#ffcccc" stroke="#000000" cx="375.0213" cy="-560" rx="38.9931" ry="18"/>
<text text-anchor="middle" x="375.0213" y="-556.3" font-family="Times,serif" font-size="14.00" fill="#000000">loglevel</text>
</a>
</g>
</g>
<!-- image build base -->
<g id="node16" class="node">
<title>image build base</title>
<g id="a_node16"><a xlink:href="https://github.com/rancher/image-build-base" xlink:title="image build base">
<ellipse fill="#ffcccc" stroke="#000000" cx="581.9562" cy="-486" rx="71.4873" ry="18"/>
<text text-anchor="middle" x="581.9562" y="-482.3" font-family="Times,serif" font-size="14.00" fill="#000000">image build base</text>
</a>
</g>
</g>
<!-- trivy -->
<g id="node17" class="node">
<title>trivy</title>
<g id="a_node17"><a xlink:href="https://github.com/aquasecurity/trivy" xlink:title="trivy">
<ellipse fill="#ccccff" stroke="#000000" cx="729.0963" cy="-486" rx="27.8951" ry="18"/>
<text text-anchor="middle" x="729.0963" y="-482.3" font-family="Times,serif" font-size="14.00" fill="#000000">trivy</text>
</a>
</g>
</g>
<!-- image build base&#45;&#45;trivy -->
<g id="edge14" class="edge">
<title>image build base&#45;&#45;trivy</title>
<path fill="none" stroke="#000000" d="M653.8021,-486C670.5807,-486 687.479,-486 701.0035,-486"/>
</g>
<!-- rancher coredns -->
<g id="node18" class="node">
<title>rancher coredns</title>
<g id="a_node18"><a xlink:href="https://github.com/rancher/image-build-coredns" xlink:title="rancher coredns">
<ellipse fill="#ffcccc" stroke="#000000" cx="375.0213" cy="-614" rx="66.8882" ry="18"/>
<text text-anchor="middle" x="375.0213" y="-610.3" font-family="Times,serif" font-size="14.00" fill="#000000">rancher coredns</text>
</a>
</g>
</g>
<!-- rancher coredns&#45;&#45;image build base -->
<g id="edge15" class="edge">
<title>rancher coredns&#45;&#45;image build base</title>
<path fill="none" stroke="#000000" d="M431.4255,-604.0973C442.6957,-600.1651 453.8061,-594.6723 462.7636,-587 490.5413,-563.2076 471.1686,-537.0042 498.7636,-513 506.5541,-506.2231 516.0758,-501.1415 525.8592,-497.3326"/>
</g>
<!-- kubectl -->
<g id="node19" class="node">
<title>kubectl</title>
<g id="a_node19"><a xlink:href="https://storage.googleapis.com/kubernetes-release" xlink:title="kubectl">
<ellipse fill="#ccffcc" stroke="#000000" cx="581.9562" cy="-250" rx="37.0935" ry="18"/>
<text text-anchor="middle" x="581.9562" y="-246.3" font-family="Times,serif" font-size="14.00" fill="#000000">kubectl</text>
</a>
</g>
</g>
<!-- k9s -->
<g id="node20" class="node">
<title>k9s</title>
<g id="a_node20"><a xlink:href="https://github.com/derailed/k9s/releases" xlink:title="k9s">
<ellipse fill="#ccccff" stroke="#000000" cx="581.9562" cy="-304" rx="27" ry="18"/>
<text text-anchor="middle" x="581.9562" y="-300.3" font-family="Times,serif" font-size="14.00" fill="#000000">k9s</text>
</a>
</g>
</g>
<!-- shell -->
<g id="node21" class="node">
<title>shell</title>
<g id="a_node21"><a xlink:href="https://github.com/rancher/shell" xlink:title="shell">
<ellipse fill="#ffcccc" stroke="#000000" cx="375.0213" cy="-270" rx="27.0966" ry="18"/>
<text text-anchor="middle" x="375.0213" y="-266.3" font-family="Times,serif" font-size="14.00" fill="#000000">shell</text>
</a>
</g>
</g>
<!-- shell&#45;&#45;alpine -->
<g id="edge16" class="edge">
<title>shell&#45;&#45;alpine</title>
<path fill="none" stroke="#000000" d="M401.6497,-274.8622C419.7486,-278.9445 443.7609,-285.9252 462.7636,-297 481.7779,-308.0816 481.0527,-317.9358 498.7636,-331 517.3197,-344.6878 540.2515,-357.3678 557.3366,-366.099"/>
</g>
<!-- shell&#45;&#45;kubectl -->
<g id="edge17" class="edge">
<title>shell&#45;&#45;kubectl</title>
<path fill="none" stroke="#000000" d="M402.0745,-267.3853C438.7754,-263.8383 504.4579,-257.4901 545.485,-253.5249"/>
</g>
<!-- shell&#45;&#45;k9s -->
<g id="edge18" class="edge">
<title>shell&#45;&#45;k9s</title>
<path fill="none" stroke="#000000" d="M401.6508,-274.3753C441.385,-280.9037 515.7542,-293.1228 555.4289,-299.6415"/>
</g>
<!-- metrics server -->
<g id="node22" class="node">
<title>metrics server</title>
<g id="a_node22"><a xlink:href="https://github.com/rancher/image-build-k8s-metrics-server" xlink:title="metrics server">
<ellipse fill="#ffcccc" stroke="#000000" cx="375.0213" cy="-668" rx="61.99" ry="18"/>
<text text-anchor="middle" x="375.0213" y="-664.3" font-family="Times,serif" font-size="14.00" fill="#000000">metrics server</text>
</a>
</g>
</g>
<!-- metrics server&#45;&#45;image build base -->
<g id="edge19" class="edge">
<title>metrics server&#45;&#45;image build base</title>
<path fill="none" stroke="#000000" d="M430.6974,-659.896C442.5436,-655.8787 454.0808,-649.8969 462.7636,-641 504.0388,-598.707 457.813,-555.6075 498.7636,-513 505.7083,-505.7743 514.6017,-500.4797 523.9774,-496.6008"/>
</g>
<!-- local path provisioner -->
<g id="node23" class="node">
<title>local path provisioner</title>
<g id="a_node23"><a xlink:href="https://github.com/rancher/local-path-provisioner" xlink:title="local path provisioner">
<ellipse fill="#ffcccc" stroke="#000000" cx="375.0213" cy="-378" rx="87.9851" ry="18"/>
<text text-anchor="middle" x="375.0213" y="-374.3" font-family="Times,serif" font-size="14.00" fill="#000000">local path provisioner</text>
</a>
</g>
</g>
<!-- local path provisioner&#45;&#45;alpine -->
<g id="edge20" class="edge">
<title>local path provisioner&#45;&#45;alpine</title>
<path fill="none" stroke="#000000" d="M462.7803,-378C493.4038,-378 525.9069,-378 549.2203,-378"/>
</g>
<!-- helm -->
<g id="node24" class="node">
<title>helm</title>
<g id="a_node24"><a xlink:href="https://get.helm.sh" xlink:title="helm">
<ellipse fill="#ccffcc" stroke="#000000" cx="581.9562" cy="-432" rx="28.6953" ry="18"/>
<text text-anchor="middle" x="581.9562" y="-428.3" font-family="Times,serif" font-size="14.00" fill="#000000">helm</text>
</a>
</g>
</g>
<!-- fleet -->
<g id="node25" class="node">
<title>fleet</title>
<g id="a_node25"><a xlink:href="https://github.com/rancher/fleet" xlink:title="fleet">
<ellipse fill="#ffcccc" stroke="#000000" cx="375.0213" cy="-432" rx="27" ry="18"/>
<text text-anchor="middle" x="375.0213" y="-428.3" font-family="Times,serif" font-size="14.00" fill="#000000">fleet</text>
</a>
</g>
</g>
<!-- fleet&#45;&#45;alpine -->
<g id="edge22" class="edge">
<title>fleet&#45;&#45;alpine</title>
<path fill="none" stroke="#000000" d="M400.3956,-425.3785C438.8169,-415.3524 511.5857,-396.3633 552.3625,-385.7225"/>
</g>
<!-- fleet&#45;&#45;helm -->
<g id="edge21" class="edge">
<title>fleet&#45;&#45;helm</title>
<path fill="none" stroke="#000000" d="M402.0745,-432C441.1856,-432 513.2098,-432 553.2337,-432"/>
</g>
<!-- agent -->
<g id="node26" class="node">
<title>agent</title>
<g id="a_node26"><a xlink:href="https://github.com/rancher/agent" xlink:title="agent">
<ellipse fill="#ffcccc" stroke="#000000" cx="375.0213" cy="-722" rx="29.795" ry="18"/>
<text text-anchor="middle" x="375.0213" y="-718.3" font-family="Times,serif" font-size="14.00" fill="#000000">agent</text>
</a>
</g>
</g>
<!-- agent&#45;&#45;docker -->
<g id="edge23" class="edge">
<title>agent&#45;&#45;docker</title>
<path fill="none" stroke="#000000" d="M404.8055,-719.9895C423.8074,-717.1631 447.6244,-710.5125 462.7636,-695 504.0388,-652.707 457.813,-609.6075 498.7636,-567 511.6007,-553.6434 531.0965,-546.8853 547.9889,-543.4699"/>
</g>
<!-- k3s -->
<g id="node27" class="node">
<title>k3s</title>
<g id="a_node27"><a xlink:href="https://github.com/k3s-io/k3s" xlink:title="k3s">
<ellipse fill="#ccccff" stroke="#000000" cx="375.0213" cy="-324" rx="27" ry="18"/>
<text text-anchor="middle" x="375.0213" y="-320.3" font-family="Times,serif" font-size="14.00" fill="#000000">k3s</text>
</a>
</g>
</g>
<!-- k3s&#45;&#45;alpine -->
<g id="edge25" class="edge">
<title>k3s&#45;&#45;alpine</title>
<path fill="none" stroke="#000000" d="M400.3956,-330.6215C438.8169,-340.6476 511.5857,-359.6367 552.3625,-370.2775"/>
</g>
<!-- k3s&#45;&#45;trivy -->
<g id="edge24" class="edge">
<title>k3s&#45;&#45;trivy</title>
<path fill="none" stroke="#000000" d="M401.9143,-325.7811C471.7932,-330.5052 654.4376,-343.5041 665.1488,-351 704.882,-378.8063 720.6889,-438.0232 726.3233,-467.9248"/>
</g>
<!-- Rancher MCM -->
<g id="node28" class="node">
<title>Rancher MCM</title>
<g id="a_node28"><a xlink:href="https://github.com/rancher/rancher" xlink:title="Rancher MCM">
<ellipse fill="none" stroke="#000000" cx="133.6396" cy="-587" rx="64.9885" ry="18"/>
<text text-anchor="middle" x="133.6396" y="-583.3" font-family="Times,serif" font-size="14.00" fill="#000000">Rancher MCM</text>
</a>
</g>
</g>
<!-- Rancher MCM&#45;&#45;machine -->
<g id="edge26" class="edge">
<title>Rancher MCM&#45;&#45;machine</title>
<path fill="none" stroke="#000000" d="M141.4841,-605.1266C160.3453,-646.5707 212.2954,-748.8403 287.2791,-803 301.6205,-813.3586 320.0211,-819.8104 336.2645,-823.796"/>
</g>
<!-- Rancher MCM&#45;&#45;telemetry -->
<g id="edge27" class="edge">
<title>Rancher MCM&#45;&#45;telemetry</title>
<path fill="none" stroke="#000000" d="M145.6049,-604.6976C168.9494,-637.8876 223.8701,-709.6684 287.2791,-749 301.5003,-757.8212 318.8164,-763.9484 334.2962,-768.1076"/>
</g>
<!-- Rancher MCM&#45;&#45;rancher helm -->
<g id="edge28" class="edge">
<title>Rancher MCM&#45;&#45;rancher helm</title>
<path fill="none" stroke="#000000" d="M173.2843,-572.5824C204.2232,-561.4484 248.3418,-545.828 287.2791,-533 302.1139,-528.1126 318.4491,-523.0104 332.9619,-518.5741"/>
</g>
<!-- Rancher MCM&#45;&#45;loglevel -->
<g id="edge29" class="edge">
<title>Rancher MCM&#45;&#45;loglevel</title>
<path fill="none" stroke="#000000" d="M193.9277,-580.2564C238.7521,-575.2425 298.5534,-568.5534 336.9329,-564.2604"/>
</g>
<!-- Rancher MCM&#45;&#45;trivy -->
<g id="edge36" class="edge">
<title>Rancher MCM&#45;&#45;trivy</title>
<path fill="none" stroke="#000000" d="M141.8083,-604.8684C191.0947,-710.4633 453.7622,-1241.8861 665.1488,-1053 707.1612,-1015.4595 725.0049,-596.8601 728.4572,-504.1216"/>
</g>
<!-- Rancher MCM&#45;&#45;rancher coredns -->
<g id="edge30" class="edge">
<title>Rancher MCM&#45;&#45;rancher coredns</title>
<path fill="none" stroke="#000000" d="M193.9277,-593.7436C230.2341,-597.8047 276.366,-602.9648 312.982,-607.0605"/>
</g>
<!-- Rancher MCM&#45;&#45;shell -->
<g id="edge31" class="edge">
<title>Rancher MCM&#45;&#45;shell</title>
<path fill="none" stroke="#000000" d="M137.9953,-568.9391C151.1823,-518.159 195.519,-372.8969 287.2791,-297 304.4729,-282.7786 329.1023,-276.0369 347.8923,-272.8472"/>
</g>
<!-- Rancher MCM&#45;&#45;metrics server -->
<g id="edge32" class="edge">
<title>Rancher MCM&#45;&#45;metrics server</title>
<path fill="none" stroke="#000000" d="M173.2843,-601.4176C204.2232,-612.5516 248.3418,-628.172 287.2791,-641 301.6598,-645.7378 317.4504,-650.6774 331.624,-655.0167"/>
</g>
<!-- Rancher MCM&#45;&#45;local path provisioner -->
<g id="edge33" class="edge">
<title>Rancher MCM&#45;&#45;local path provisioner</title>
<path fill="none" stroke="#000000" d="M143.8608,-569.059C165.5264,-532.6353 219.6695,-449.6939 287.2791,-405 295.7882,-399.375 305.5267,-394.875 315.348,-391.289"/>
</g>
<!-- Rancher MCM&#45;&#45;fleet -->
<g id="edge34" class="edge">
<title>Rancher MCM&#45;&#45;fleet</title>
<path fill="none" stroke="#000000" d="M155.9651,-570.0166C185.3602,-547.9588 238.9805,-508.7607 287.2791,-479 309.053,-465.5833 334.9768,-451.9709 352.9747,-442.8734"/>
</g>
<!-- Rancher MCM&#45;&#45;agent -->
<g id="edge35" class="edge">
<title>Rancher MCM&#45;&#45;agent</title>
<path fill="none" stroke="#000000" d="M153.6975,-604.2524C181.8485,-627.6992 235.4564,-669.6071 287.2791,-695 306.3143,-704.3271 329.2534,-711.2504 346.9023,-715.7501"/>
</g>
<!-- Rancher MCM&#45;&#45;k3s -->
<g id="edge37" class="edge">
<title>Rancher MCM&#45;&#45;k3s</title>
<path fill="none" stroke="#000000" d="M140.3516,-568.8525C157.613,-524.6978 207.8431,-410.9022 287.2791,-351 305.0945,-337.5655 329.6656,-330.75 348.2752,-327.3319"/>
</g>
<!-- rke2 -->
<g id="node29" class="node">
<title>rke2</title>
<g id="a_node29"><a xlink:href="https://github.com/rancher/rke2" xlink:title="rke2">
<ellipse fill="none" stroke="#000000" cx="133.6396" cy="-214" rx="27" ry="18"/>
<text text-anchor="middle" x="133.6396" y="-210.3" font-family="Times,serif" font-size="14.00" fill="#000000">rke2</text>
</a>
</g>
</g>
<!-- rke2&#45;&#45;image build base -->
<g id="edge42" class="edge">
<title>rke2&#45;&#45;image build base</title>
<path fill="none" stroke="#000000" d="M138.7434,-231.8493C153.1515,-278.5945 198.9485,-404.7188 287.2791,-459 296.7716,-464.8334 428.7496,-475.1615 512.8276,-481.2125"/>
</g>
<!-- rke2&#45;&#45;kubectl -->
<g id="edge44" class="edge">
<title>rke2&#45;&#45;kubectl</title>
<path fill="none" stroke="#000000" d="M160.6742,-216.1709C237.5339,-222.3428 457.4008,-239.9982 545.1451,-247.0441"/>
</g>
<!-- rke2&#45;&#45;k3s -->
<g id="edge43" class="edge">
<title>rke2&#45;&#45;k3s</title>
<path fill="none" stroke="#000000" d="M153.3935,-226.316C182.0564,-243.8009 237.2307,-276.0216 287.2791,-297 307.7106,-305.5641 331.8225,-312.7881 349.5946,-317.6025"/>
</g>
<!-- rke2&#45;runtime -->
<g id="node30" class="node">
<title>rke2&#45;runtime</title>
<g id="a_node30"><a xlink:href="https://github.com/rancher/rke2" xlink:title="rke2&#45;runtime">
<ellipse fill="#ffcccc" stroke="#000000" cx="375.0213" cy="-88" rx="57.6901" ry="18"/>
<text text-anchor="middle" x="375.0213" y="-84.3" font-family="Times,serif" font-size="14.00" fill="#000000">rke2&#45;runtime</text>
</a>
</g>
</g>
<!-- rke2&#45;&#45;rke2&#45;runtime -->
<g id="edge38" class="edge">
<title>rke2&#45;&#45;rke2&#45;runtime</title>
<path fill="none" stroke="#000000" d="M151.6053,-200.0726C179.3532,-179.1217 234.9175,-139.3613 287.2791,-115 300.7181,-108.7475 315.9725,-103.4746 329.9496,-99.2946"/>
</g>
<!-- crane -->
<g id="node34" class="node">
<title>crane</title>
<g id="a_node34"><a xlink:href="https://github.com/google/go-containerregistry" xlink:title="crane">
<ellipse fill="#ccccff" stroke="#000000" cx="375.0213" cy="-142" rx="29.795" ry="18"/>
<text text-anchor="middle" x="375.0213" y="-138.3" font-family="Times,serif" font-size="14.00" fill="#000000">crane</text>
</a>
</g>
</g>
<!-- rke2&#45;&#45;crane -->
<g id="edge45" class="edge">
<title>rke2&#45;&#45;crane</title>
<path fill="none" stroke="#000000" d="M158.5625,-206.5659C204.2147,-192.9487 300.8882,-164.1126 348.0326,-150.0503"/>
</g>
<!-- hardened&#45;kubernetes -->
<g id="node35" class="node">
<title>hardened&#45;kubernetes</title>
<g id="a_node35"><a xlink:href="https://github.com/rancher/image-build-kubernetes" xlink:title="hardened&#45;kubernetes">
<ellipse fill="#ffcccc" stroke="#000000" cx="375.0213" cy="-196" rx="85.2851" ry="18"/>
<text text-anchor="middle" x="375.0213" y="-192.3" font-family="Times,serif" font-size="14.00" fill="#000000">hardened&#45;kubernetes</text>
</a>
</g>
</g>
<!-- rke2&#45;&#45;hardened&#45;kubernetes -->
<g id="edge46" class="edge">
<title>rke2&#45;&#45;hardened&#45;kubernetes</title>
<path fill="none" stroke="#000000" d="M160.8599,-211.9702C193.1018,-209.5659 248.2747,-205.4516 294.5444,-202.0012"/>
</g>
<!-- hardened&#45;containerd -->
<g id="node31" class="node">
<title>hardened&#45;containerd</title>
<g id="a_node31"><a xlink:href="https://github.com/rancher/image-build-containerd" xlink:title="hardened&#45;containerd">
<ellipse fill="#ffcccc" stroke="#000000" cx="581.9562" cy="-88" rx="83.3857" ry="18"/>
<text text-anchor="middle" x="581.9562" y="-84.3" font-family="Times,serif" font-size="14.00" fill="#000000">hardened&#45;containerd</text>
</a>
</g>
</g>
<!-- rke2&#45;runtime&#45;&#45;hardened&#45;containerd -->
<g id="edge39" class="edge">
<title>rke2&#45;runtime&#45;&#45;hardened&#45;containerd</title>
<path fill="none" stroke="#000000" d="M432.9394,-88C453.2659,-88 476.5226,-88 498.5229,-88"/>
</g>
<!-- hardened&#45;runc -->
<g id="node32" class="node">
<title>hardened&#45;runc</title>
<g id="a_node32"><a xlink:href="https://github.com/rancher/image-build-runc" xlink:title="hardened&#45;runc">
<ellipse fill="#ffcccc" stroke="#000000" cx="581.9562" cy="-142" rx="61.99" ry="18"/>
<text text-anchor="middle" x="581.9562" y="-138.3" font-family="Times,serif" font-size="14.00" fill="#000000">hardened&#45;runc</text>
</a>
</g>
</g>
<!-- rke2&#45;runtime&#45;&#45;hardened&#45;runc -->
<g id="edge40" class="edge">
<title>rke2&#45;runtime&#45;&#45;hardened&#45;runc</title>
<path fill="none" stroke="#000000" d="M419.4141,-99.5844C453.7352,-108.5405 501.0981,-120.8999 535.8449,-129.9672"/>
</g>
<!-- hardened&#45;crictl -->
<g id="node33" class="node">
<title>hardened&#45;crictl</title>
<g id="a_node33"><a xlink:href="https://github.com/rancher/image-build-crictl" xlink:title="hardened&#45;crictl">
<ellipse fill="#ffcccc" stroke="#000000" cx="581.9562" cy="-34" rx="64.189" ry="18"/>
<text text-anchor="middle" x="581.9562" y="-30.3" font-family="Times,serif" font-size="14.00" fill="#000000">hardened&#45;crictl</text>
</a>
</g>
</g>
<!-- rke2&#45;runtime&#45;&#45;hardened&#45;crictl -->
<g id="edge41" class="edge">
<title>rke2&#45;runtime&#45;&#45;hardened&#45;crictl</title>
<path fill="none" stroke="#000000" d="M419.4141,-76.4156C453.3789,-67.5525 500.1162,-55.3563 534.7587,-46.3162"/>
</g>
<!-- k3s&#45;root -->
<g id="node36" class="node">
<title>k3s&#45;root</title>
<g id="a_node36"><a xlink:href="https://github.com/k3s-io/k3s-root" xlink:title="k3s&#45;root">
<ellipse fill="#ccccff" stroke="#000000" cx="581.9562" cy="-196" rx="40.0939" ry="18"/>
<text text-anchor="middle" x="581.9562" y="-192.3" font-family="Times,serif" font-size="14.00" fill="#000000">k3s&#45;root</text>
</a>
</g>
</g>
<!-- hardened&#45;kubernetes&#45;&#45;k3s&#45;root -->
<g id="edge47" class="edge">
<title>hardened&#45;kubernetes&#45;&#45;k3s&#45;root</title>
<path fill="none" stroke="#000000" d="M460.3844,-196C488.4403,-196 518.3293,-196 541.4504,-196"/>
</g>
<!-- rancher -->
<g id="node37" class="node">
<title>rancher</title>
<ellipse fill="#ffcccc" stroke="#000000" cx="133.6396" cy="-1214" rx="37.0935" ry="18"/>
<text text-anchor="middle" x="133.6396" y="-1210.3" font-family="Times,serif" font-size="14.00" fill="#000000">rancher</text>
</g>
<!-- external without s390x binary -->
<g id="node38" class="node">
<title>external without s390x binary</title>
<ellipse fill="#ccccff" stroke="#000000" cx="133.6396" cy="-1160" rx="117.7793" ry="18"/>
<text text-anchor="middle" x="133.6396" y="-1156.3" font-family="Times,serif" font-size="14.00" fill="#000000">external without s390x binary</text>
</g>
<!-- external with s390x binary -->
<g id="node39" class="node">
<title>external with s390x binary</title>
<ellipse fill="#ccffcc" stroke="#000000" cx="133.6396" cy="-1106" rx="106.6812" ry="18"/>
<text text-anchor="middle" x="133.6396" y="-1102.3" font-family="Times,serif" font-size="14.00" fill="#000000">external with s390x binary</text>
</g>
</g>
</svg>
