<?xml version="1.0" encoding="UTF-8" standalone="no"?>
<!DOCTYPE svg PUBLIC "-//W3C//DTD SVG 1.1//EN"
 "http://www.w3.org/Graphics/SVG/1.1/DTD/svg11.dtd">
<!-- Generated by graphviz version 2.40.1 (20161225.0304)
 -->
<!-- Title: %3 Pages: 1 -->
<svg width="666pt" height="1077pt"
 viewBox="0.00 0.00 665.75 1077.00" xmlns="http://www.w3.org/2000/svg" xmlns:xlink="http://www.w3.org/1999/xlink">
<g id="graph0" class="graph" transform="scale(1 1) rotate(0) translate(4 1073)">
<title>%3</title>
<polygon fill="#ffffff" stroke="transparent" points="-4,4 -4,-1073 661.7509,-1073 661.7509,4 -4,4"/>
<g id="clust1" class="cluster">
<title>cluster1</title>
<polygon fill="none" stroke="transparent" points="60.6453,-8 60.6453,-870 649.7509,-870 649.7509,-8 60.6453,-8"/>
</g>
<g id="clust2" class="cluster">
<title>cluster2</title>
<polygon fill="none" stroke="#000000" points="8,-878 8,-1061 259.2791,-1061 259.2791,-878 8,-878"/>
<text text-anchor="middle" x="133.6396" y="-1045.8" font-family="Times,serif" font-size="14.00" fill="#000000">Legend</text>
</g>
<!-- linode -->
<g id="node1" class="node">
<title>linode</title>
<g id="a_node1"><a xlink:href="https://github.com/linode/docker-machine-driver-linode/" xlink:title="linode">
<ellipse fill="#ccccff" stroke="#000000" cx="570.2572" cy="-34" rx="32.4942" ry="18"/>
<text text-anchor="middle" x="570.2572" y="-30.3" font-family="Times,serif" font-size="14.00" fill="#000000">linode</text>
</a>
</g>
</g>
<!-- cloudca -->
<g id="node2" class="node">
<title>cloudca</title>
<g id="a_node2"><a xlink:href="https://github.com/cloud-ca/docker-machine-driver-cloudca" xlink:title="cloudca">
<ellipse fill="#ccccff" stroke="#000000" cx="570.2572" cy="-88" rx="38.1938" ry="18"/>
<text text-anchor="middle" x="570.2572" y="-84.3" font-family="Times,serif" font-size="14.00" fill="#000000">cloudca</text>
</a>
</g>
</g>
<!-- cloudscale -->
<g id="node3" class="node">
<title>cloudscale</title>
<g id="a_node3"><a xlink:href="https://github.com/cloudscale-ch/docker-machine-driver-cloudscale" xlink:title="cloudscale">
<ellipse fill="#ccccff" stroke="#000000" cx="570.2572" cy="-142" rx="48.1917" ry="18"/>
<text text-anchor="middle" x="570.2572" y="-138.3" font-family="Times,serif" font-size="14.00" fill="#000000">cloudscale</text>
</a>
</g>
</g>
<!-- oci -->
<g id="node4" class="node">
<title>oci</title>
<g id="a_node4"><a xlink:href="https://github.com/rancher-plugins/rancher-machine-driver-oci" xlink:title="oci">
<ellipse fill="#ccccff" stroke="#000000" cx="570.2572" cy="-196" rx="27" ry="18"/>
<text text-anchor="middle" x="570.2572" y="-192.3" font-family="Times,serif" font-size="14.00" fill="#000000">oci</text>
</a>
</g>
</g>
<!-- otc -->
<g id="node5" class="node">
<title>otc</title>
<g id="a_node5"><a xlink:href="https://github.com/rancher-plugins/rancher-machine-driver-otc" xlink:title="otc">
<ellipse fill="#ccccff" stroke="#000000" cx="570.2572" cy="-250" rx="27" ry="18"/>
<text text-anchor="middle" x="570.2572" y="-246.3" font-family="Times,serif" font-size="14.00" fill="#000000">otc</text>
</a>
</g>
</g>
<!-- packethost -->
<g id="node6" class="node">
<title>packethost</title>
<g id="a_node6"><a xlink:href="https://github.com/packethost/docker-machine-driver-packet" xlink:title="packethost">
<ellipse fill="#ccccff" stroke="#000000" cx="570.2572" cy="-304" rx="48.1917" ry="18"/>
<text text-anchor="middle" x="570.2572" y="-300.3" font-family="Times,serif" font-size="14.00" fill="#000000">packethost</text>
</a>
</g>
</g>
<!-- pnap -->
<g id="node7" class="node">
<title>pnap</title>
<g id="a_node7"><a xlink:href="https://github.com/phoenixnap/docker-machine-driver-pnap" xlink:title="pnap">
<ellipse fill="#ccccff" stroke="#000000" cx="570.2572" cy="-358" rx="27.8951" ry="18"/>
<text text-anchor="middle" x="570.2572" y="-354.3" font-family="Times,serif" font-size="14.00" fill="#000000">pnap</text>
</a>
</g>
</g>
<!-- pinganyun -->
<g id="node8" class="node">
<title>pinganyun</title>
<g id="a_node8"><a xlink:href="https://drivers.rancher.cn/node-driver-/0.3.0" xlink:title="pinganyun">
<ellipse fill="#ccccff" stroke="#000000" cx="570.2572" cy="-412" rx="48.1917" ry="18"/>
<text text-anchor="middle" x="570.2572" y="-408.3" font-family="Times,serif" font-size="14.00" fill="#000000">pinganyun</text>
</a>
</g>
</g>
<!-- go -->
<g id="node9" class="node">
<title>go</title>
<ellipse fill="#ccffcc" stroke="#000000" cx="570.2572" cy="-466" rx="27" ry="18"/>
<text text-anchor="middle" x="570.2572" y="-462.3" font-family="Times,serif" font-size="14.00" fill="#000000">go</text>
</g>
<!-- docker -->
<g id="node10" class="node">
<title>docker</title>
<ellipse fill="#ccffcc" stroke="#000000" cx="570.2572" cy="-520" rx="34.394" ry="18"/>
<text text-anchor="middle" x="570.2572" y="-516.3" font-family="Times,serif" font-size="14.00" fill="#000000">docker</text>
</g>
<!-- machine -->
<g id="node11" class="node">
<title>machine</title>
<g id="a_node11"><a xlink:href="https://github.com/rancher/machine" xlink:title="machine">
<ellipse fill="#ffcccc" stroke="#000000" cx="375.0213" cy="-284" rx="40.8928" ry="18"/>
<text text-anchor="middle" x="375.0213" y="-280.3" font-family="Times,serif" font-size="14.00" fill="#000000">machine</text>
</a>
</g>
</g>
<!-- machine&#45;&#45;linode -->
<g id="edge3" class="edge">
<title>machine&#45;&#45;linode</title>
<path fill="none" stroke="#000000" d="M380.2799,-265.9141C393.3581,-223.995 431.2592,-119.3335 498.7636,-61 510.3082,-51.0238 525.9079,-44.562 539.5898,-40.4704"/>
</g>
<!-- machine&#45;&#45;cloudca -->
<g id="edge4" class="edge">
<title>machine&#45;&#45;cloudca</title>
<path fill="none" stroke="#000000" d="M383.5298,-266.313C400.7136,-232.345 442.7444,-157.5807 498.7636,-115 509.7488,-106.65 523.6077,-100.6284 536.1926,-96.4213"/>
</g>
<!-- machine&#45;&#45;cloudscale -->
<g id="edge5" class="edge">
<title>machine&#45;&#45;cloudscale</title>
<path fill="none" stroke="#000000" d="M389.4006,-266.9659C410.9469,-242.3695 453.8955,-196.8152 498.7636,-169 509.0253,-162.6384 521.0254,-157.3879 532.2313,-153.2623"/>
</g>
<!-- machine&#45;&#45;oci -->
<g id="edge6" class="edge">
<title>machine&#45;&#45;oci</title>
<path fill="none" stroke="#000000" d="M401.2253,-270.1589C426.0366,-257.2753 464.4892,-237.8783 498.7636,-223 514.3418,-216.2376 532.2152,-209.4876 546.1941,-204.4282"/>
</g>
<!-- machine&#45;&#45;otc -->
<g id="edge7" class="edge">
<title>machine&#45;&#45;otc</title>
<path fill="none" stroke="#000000" d="M413.1283,-277.3637C451.7462,-270.6385 510.4575,-260.414 544.1073,-254.554"/>
</g>
<!-- machine&#45;&#45;packethost -->
<g id="edge8" class="edge">
<title>machine&#45;&#45;packethost</title>
<path fill="none" stroke="#000000" d="M415.0013,-288.0956C446.5729,-291.3298 490.6761,-295.8477 523.8121,-299.2421"/>
</g>
<!-- machine&#45;&#45;pnap -->
<g id="edge9" class="edge">
<title>machine&#45;&#45;pnap</title>
<path fill="none" stroke="#000000" d="M410.6328,-293.1317C426.8208,-297.7443 446.0485,-303.8775 462.7636,-311 479.6019,-318.175 482.1578,-323.3018 498.7636,-331 513.9304,-338.0312 531.4866,-344.6818 545.406,-349.6231"/>
</g>
<!-- machine&#45;&#45;pinganyun -->
<g id="edge10" class="edge">
<title>machine&#45;&#45;pinganyun</title>
<path fill="none" stroke="#000000" d="M414.6494,-289.0974C431.047,-292.887 449.3274,-299.4916 462.7636,-311 490.5413,-334.7924 471.7437,-360.3504 498.7636,-385 507.2911,-392.7795 518.2796,-398.3897 529.0716,-402.4065"/>
</g>
<!-- machine&#45;&#45;go -->
<g id="edge2" class="edge">
<title>machine&#45;&#45;go</title>
<path fill="none" stroke="#000000" d="M415.241,-287.8918C431.9432,-291.4602 450.296,-298.225 462.7636,-311 504.0388,-353.293 458.8315,-395.4365 498.7636,-439 510.4183,-451.7146 528.6725,-458.4786 543.8182,-462.0567"/>
</g>
<!-- machine&#45;&#45;docker -->
<g id="edge1" class="edge">
<title>machine&#45;&#45;docker</title>
<path fill="none" stroke="#000000" d="M415.2789,-287.3421C432.1937,-290.7969 450.7027,-297.625 462.7636,-311 517.9827,-372.2361 445.487,-430.0666 498.7636,-493 508.3648,-504.3416 523.2493,-510.9272 536.9565,-514.7476"/>
</g>
<!-- alpine -->
<g id="node12" class="node">
<title>alpine</title>
<g id="a_node12"><a xlink:href="https://hub.docker.com/_/alpine" xlink:title="alpine">
<ellipse fill="#ccccff" stroke="#000000" cx="570.2572" cy="-736" rx="32.4942" ry="18"/>
<text text-anchor="middle" x="570.2572" y="-732.3" font-family="Times,serif" font-size="14.00" fill="#000000">alpine</text>
</a>
</g>
</g>
<!-- telemetry -->
<g id="node13" class="node">
<title>telemetry</title>
<g id="a_node13"><a xlink:href="https://github.com/rancher/telemetry" xlink:title="telemetry">
<ellipse fill="#ffcccc" stroke="#000000" cx="375.0213" cy="-338" rx="44.6926" ry="18"/>
<text text-anchor="middle" x="375.0213" y="-334.3" font-family="Times,serif" font-size="14.00" fill="#000000">telemetry</text>
</a>
</g>
</g>
<!-- telemetry&#45;&#45;go -->
<g id="edge11" class="edge">
<title>telemetry&#45;&#45;go</title>
<path fill="none" stroke="#000000" d="M417.7724,-343.8484C433.3334,-347.7395 450.1747,-354.2173 462.7636,-365 490.5413,-388.7924 471.7437,-414.3504 498.7636,-439 511.3098,-450.4457 529.1832,-457.1957 543.9201,-461.0843"/>
</g>
<!-- telemetry&#45;&#45;docker -->
<g id="edge12" class="edge">
<title>telemetry&#45;&#45;docker</title>
<path fill="none" stroke="#000000" d="M418.3902,-342.599C434.2143,-346.3293 451.0752,-353.0235 462.7636,-365 504.0388,-407.293 458.8315,-449.4365 498.7636,-493 508.8046,-503.9541 523.744,-510.4914 537.3739,-514.3798"/>
</g>
<!-- telemetry&#45;&#45;alpine -->
<g id="edge13" class="edge">
<title>telemetry&#45;&#45;alpine</title>
<path fill="none" stroke="#000000" d="M419.0387,-341.507C435.1447,-345.0801 452.0323,-351.9518 462.7636,-365 560.4095,-483.7278 404.8794,-587.2758 498.7636,-709 508.3251,-721.3969 524.2619,-728.102 538.6653,-731.7284"/>
</g>
<!-- rancher helm -->
<g id="node14" class="node">
<title>rancher helm</title>
<g id="a_node14"><a xlink:href="https://github.com/rancher/helm" xlink:title="rancher helm">
<ellipse fill="#ffcccc" stroke="#000000" cx="375.0213" cy="-392" rx="57.6901" ry="18"/>
<text text-anchor="middle" x="375.0213" y="-388.3" font-family="Times,serif" font-size="14.00" fill="#000000">rancher helm</text>
</a>
</g>
</g>
<!-- loglevel -->
<g id="node15" class="node">
<title>loglevel</title>
<g id="a_node15"><a xlink:href="hhttps://github.com/rancher/loglevel" xlink:title="loglevel">
<ellipse fill="#ffcccc" stroke="#000000" cx="375.0213" cy="-446" rx="38.9931" ry="18"/>
<text text-anchor="middle" x="375.0213" y="-442.3" font-family="Times,serif" font-size="14.00" fill="#000000">loglevel</text>
</a>
</g>
</g>
<!-- image build base -->
<g id="node16" class="node">
<title>image build base</title>
<g id="a_node16"><a xlink:href="https://github.com/rancher/image-build-base" xlink:title="image build base">
<ellipse fill="#ffcccc" stroke="#000000" cx="570.2572" cy="-574" rx="71.4873" ry="18"/>
<text text-anchor="middle" x="570.2572" y="-570.3" font-family="Times,serif" font-size="14.00" fill="#000000">image build base</text>
</a>
</g>
</g>
<!-- rancher coredns -->
<g id="node17" class="node">
<title>rancher coredns</title>
<g id="a_node17"><a xlink:href="https://github.com/rancher/image-build-coredns" xlink:title="rancher coredns">
<ellipse fill="#ffcccc" stroke="#000000" cx="375.0213" cy="-554" rx="66.8882" ry="18"/>
<text text-anchor="middle" x="375.0213" y="-550.3" font-family="Times,serif" font-size="14.00" fill="#000000">rancher coredns</text>
</a>
</g>
</g>
<!-- rancher coredns&#45;&#45;image build base -->
<g id="edge14" class="edge">
<title>rancher coredns&#45;&#45;image build base</title>
<path fill="none" stroke="#000000" d="M437.6008,-560.4107C458.7924,-562.5815 482.524,-565.0126 503.9922,-567.2118"/>
</g>
<!-- kubectl -->
<g id="node18" class="node">
<title>kubectl</title>
<g id="a_node18"><a xlink:href="https://storage.googleapis.com/kubernetes-release" xlink:title="kubectl">
<ellipse fill="#ccffcc" stroke="#000000" cx="570.2572" cy="-628" rx="37.0935" ry="18"/>
<text text-anchor="middle" x="570.2572" y="-624.3" font-family="Times,serif" font-size="14.00" fill="#000000">kubectl</text>
</a>
</g>
</g>
<!-- k9s -->
<g id="node19" class="node">
<title>k9s</title>
<g id="a_node19"><a xlink:href="https://github.com/derailed/k9s/releases" xlink:title="k9s">
<ellipse fill="#ccccff" stroke="#000000" cx="570.2572" cy="-682" rx="27" ry="18"/>
<text text-anchor="middle" x="570.2572" y="-678.3" font-family="Times,serif" font-size="14.00" fill="#000000">k9s</text>
</a>
</g>
</g>
<!-- shell -->
<g id="node20" class="node">
<title>shell</title>
<g id="a_node20"><a xlink:href="https://github.com/rancher/shell" xlink:title="shell">
<ellipse fill="#ffcccc" stroke="#000000" cx="375.0213" cy="-662" rx="27.0966" ry="18"/>
<text text-anchor="middle" x="375.0213" y="-658.3" font-family="Times,serif" font-size="14.00" fill="#000000">shell</text>
</a>
</g>
</g>
<!-- shell&#45;&#45;alpine -->
<g id="edge15" class="edge">
<title>shell&#45;&#45;alpine</title>
<path fill="none" stroke="#000000" d="M400.8648,-668.4257C418.6135,-673.2058 442.5296,-680.3781 462.7636,-689 479.6019,-696.175 482.1578,-701.3018 498.7636,-709 512.847,-715.529 528.9907,-721.7297 542.3698,-726.5386"/>
</g>
<!-- shell&#45;&#45;kubectl -->
<g id="edge16" class="edge">
<title>shell&#45;&#45;kubectl</title>
<path fill="none" stroke="#000000" d="M401.7587,-657.3437C436.4308,-651.3057 496.9863,-640.76 535.279,-634.0914"/>
</g>
<!-- shell&#45;&#45;k9s -->
<g id="edge17" class="edge">
<title>shell&#45;&#45;k9s</title>
<path fill="none" stroke="#000000" d="M402.168,-664.7809C439.4684,-668.602 506.1623,-675.4341 543.3411,-679.2427"/>
</g>
<!-- metrics server -->
<g id="node21" class="node">
<title>metrics server</title>
<g id="a_node21"><a xlink:href="https://github.com/rancher/image-build-k8s-metrics-server" xlink:title="metrics server">
<ellipse fill="#ffcccc" stroke="#000000" cx="375.0213" cy="-608" rx="61.99" ry="18"/>
<text text-anchor="middle" x="375.0213" y="-604.3" font-family="Times,serif" font-size="14.00" fill="#000000">metrics server</text>
</a>
</g>
</g>
<!-- metrics server&#45;&#45;image build base -->
<g id="edge18" class="edge">
<title>metrics server&#45;&#45;image build base</title>
<path fill="none" stroke="#000000" d="M428.1125,-598.7543C453.8575,-594.2708 484.8611,-588.8716 511.3345,-584.2613"/>
</g>
<!-- local path provisioner -->
<g id="node22" class="node">
<title>local path provisioner</title>
<g id="a_node22"><a xlink:href="https://github.com/rancher/local-path-provisioner" xlink:title="local path provisioner">
<ellipse fill="#ffcccc" stroke="#000000" cx="375.0213" cy="-716" rx="87.9851" ry="18"/>
<text text-anchor="middle" x="375.0213" y="-712.3" font-family="Times,serif" font-size="14.00" fill="#000000">local path provisioner</text>
</a>
</g>
</g>
<!-- local path provisioner&#45;&#45;alpine -->
<g id="edge19" class="edge">
<title>local path provisioner&#45;&#45;alpine</title>
<path fill="none" stroke="#000000" d="M453.5873,-724.0483C483.0439,-727.0658 514.9085,-730.3301 537.8819,-732.6835"/>
</g>
<!-- helm -->
<g id="node23" class="node">
<title>helm</title>
<g id="a_node23"><a xlink:href="https://get.helm.sh" xlink:title="helm">
<ellipse fill="#ccffcc" stroke="#000000" cx="570.2572" cy="-790" rx="28.6953" ry="18"/>
<text text-anchor="middle" x="570.2572" y="-786.3" font-family="Times,serif" font-size="14.00" fill="#000000">helm</text>
</a>
</g>
</g>
<!-- fleet -->
<g id="node24" class="node">
<title>fleet</title>
<g id="a_node24"><a xlink:href="https://github.com/rancher/fleet" xlink:title="fleet">
<ellipse fill="#ffcccc" stroke="#000000" cx="375.0213" cy="-770" rx="27" ry="18"/>
<text text-anchor="middle" x="375.0213" y="-766.3" font-family="Times,serif" font-size="14.00" fill="#000000">fleet</text>
</a>
</g>
</g>
<!-- fleet&#45;&#45;alpine -->
<g id="edge21" class="edge">
<title>fleet&#45;&#45;alpine</title>
<path fill="none" stroke="#000000" d="M401.3517,-765.4146C437.1566,-759.1792 501.0953,-748.0444 539.2001,-741.4085"/>
</g>
<!-- fleet&#45;&#45;helm -->
<g id="edge20" class="edge">
<title>fleet&#45;&#45;helm</title>
<path fill="none" stroke="#000000" d="M401.7587,-772.739C438.5194,-776.5048 504.376,-783.2511 541.9465,-787.0998"/>
</g>
<!-- agent -->
<g id="node25" class="node">
<title>agent</title>
<g id="a_node25"><a xlink:href="https://github.com/rancher/agent" xlink:title="agent">
<ellipse fill="#ffcccc" stroke="#000000" cx="375.0213" cy="-500" rx="29.795" ry="18"/>
<text text-anchor="middle" x="375.0213" y="-496.3" font-family="Times,serif" font-size="14.00" fill="#000000">agent</text>
</a>
</g>
</g>
<!-- agent&#45;&#45;docker -->
<g id="edge22" class="edge">
<title>agent&#45;&#45;docker</title>
<path fill="none" stroke="#000000" d="M404.6735,-503.0376C440.0889,-506.6655 499.1982,-512.7207 536.3821,-516.5298"/>
</g>
<!-- trivy -->
<g id="node26" class="node">
<title>trivy</title>
<g id="a_node26"><a xlink:href="https://github.com/aquasecurity/trivy" xlink:title="trivy">
<ellipse fill="#ccccff" stroke="#000000" cx="570.2572" cy="-844" rx="27.8951" ry="18"/>
<text text-anchor="middle" x="570.2572" y="-840.3" font-family="Times,serif" font-size="14.00" fill="#000000">trivy</text>
</a>
</g>
</g>
<!-- k3s -->
<g id="node27" class="node">
<title>k3s</title>
<g id="a_node27"><a xlink:href="https://github.com/k3s-io/k3s" xlink:title="k3s">
<ellipse fill="#ccccff" stroke="#000000" cx="375.0213" cy="-824" rx="27" ry="18"/>
<text text-anchor="middle" x="375.0213" y="-820.3" font-family="Times,serif" font-size="14.00" fill="#000000">k3s</text>
</a>
</g>
</g>
<!-- k3s&#45;&#45;alpine -->
<g id="edge24" class="edge">
<title>k3s&#45;&#45;alpine</title>
<path fill="none" stroke="#000000" d="M401.2572,-819.2261C419.4004,-815.1564 443.6232,-808.1551 462.7636,-797 481.7779,-785.9184 480.1052,-774.671 498.7636,-763 511.8117,-754.8382 527.7142,-748.5294 541.2053,-744.07"/>
</g>
<!-- k3s&#45;&#45;trivy -->
<g id="edge23" class="edge">
<title>k3s&#45;&#45;trivy</title>
<path fill="none" stroke="#000000" d="M401.7587,-826.739C438.7283,-830.5262 505.1254,-837.3279 542.5842,-841.1652"/>
</g>
<!-- Rancher MCM -->
<g id="node28" class="node">
<title>Rancher MCM</title>
<g id="a_node28"><a xlink:href="https://github.com/rancher/rancher" xlink:title="Rancher MCM">
<ellipse fill="none" stroke="#000000" cx="133.6396" cy="-581" rx="64.9885" ry="18"/>
<text text-anchor="middle" x="133.6396" y="-577.3" font-family="Times,serif" font-size="14.00" fill="#000000">Rancher MCM</text>
</a>
</g>
</g>
<!-- Rancher MCM&#45;&#45;machine -->
<g id="edge25" class="edge">
<title>Rancher MCM&#45;&#45;machine</title>
<path fill="none" stroke="#000000" d="M138.7992,-562.7884C153.4869,-514.272 200.1895,-380.8503 287.2791,-311 301.0797,-299.9312 319.4085,-293.385 335.744,-289.5205"/>
</g>
<!-- Rancher MCM&#45;&#45;telemetry -->
<g id="edge26" class="edge">
<title>Rancher MCM&#45;&#45;telemetry</title>
<path fill="none" stroke="#000000" d="M141.4841,-562.8734C160.3453,-521.4293 212.2954,-419.1597 287.2791,-365 300.7161,-355.2947 317.7164,-349.0189 333.1672,-344.9879"/>
</g>
<!-- Rancher MCM&#45;&#45;rancher helm -->
<g id="edge27" class="edge">
<title>Rancher MCM&#45;&#45;rancher helm</title>
<path fill="none" stroke="#000000" d="M145.6049,-563.3024C168.9494,-530.1124 223.8701,-458.3316 287.2791,-419 299.1978,-411.607 313.2904,-406.1063 326.6539,-402.0705"/>
</g>
<!-- Rancher MCM&#45;&#45;loglevel -->
<g id="edge28" class="edge">
<title>Rancher MCM&#45;&#45;loglevel</title>
<path fill="none" stroke="#000000" d="M153.6975,-563.7476C181.8485,-540.3008 235.4564,-498.3929 287.2791,-473 303.8812,-464.8651 323.4531,-458.5587 339.8946,-454.0941"/>
</g>
<!-- Rancher MCM&#45;&#45;rancher coredns -->
<g id="edge29" class="edge">
<title>Rancher MCM&#45;&#45;rancher coredns</title>
<path fill="none" stroke="#000000" d="M193.9277,-574.2564C230.2341,-570.1953 276.366,-565.0352 312.982,-560.9395"/>
</g>
<!-- Rancher MCM&#45;&#45;shell -->
<g id="edge30" class="edge">
<title>Rancher MCM&#45;&#45;shell</title>
<path fill="none" stroke="#000000" d="M173.2843,-595.4176C204.2232,-606.5516 248.3418,-622.172 287.2791,-635 308.3204,-641.9321 332.3798,-649.2964 349.9767,-654.5798"/>
</g>
<!-- Rancher MCM&#45;&#45;metrics server -->
<g id="edge31" class="edge">
<title>Rancher MCM&#45;&#45;metrics server</title>
<path fill="none" stroke="#000000" d="M193.9277,-587.7436C231.6305,-591.9609 279.9292,-597.3634 317.1636,-601.5283"/>
</g>
<!-- Rancher MCM&#45;&#45;local path provisioner -->
<g id="edge32" class="edge">
<title>Rancher MCM&#45;&#45;local path provisioner</title>
<path fill="none" stroke="#000000" d="M153.6975,-598.2524C181.8485,-621.6992 235.4564,-663.6071 287.2791,-689 297.4407,-693.9791 308.7149,-698.2732 319.7029,-701.8793"/>
</g>
<!-- Rancher MCM&#45;&#45;fleet -->
<g id="edge33" class="edge">
<title>Rancher MCM&#45;&#45;fleet</title>
<path fill="none" stroke="#000000" d="M145.6049,-598.6976C168.9494,-631.8876 223.8701,-703.6684 287.2791,-743 306.1052,-754.6776 330.3551,-761.634 348.5886,-765.5535"/>
</g>
<!-- Rancher MCM&#45;&#45;agent -->
<g id="edge34" class="edge">
<title>Rancher MCM&#45;&#45;agent</title>
<path fill="none" stroke="#000000" d="M173.2843,-566.5824C204.2232,-555.4484 248.3418,-539.828 287.2791,-527 307.5635,-520.3172 330.6529,-513.2329 348.0531,-507.9983"/>
</g>
<!-- Rancher MCM&#45;&#45;trivy -->
<g id="edge35" class="edge">
<title>Rancher MCM&#45;&#45;trivy</title>
<path fill="none" stroke="#000000" d="M137.4208,-599.2307C149.0963,-650.2332 189.838,-794.3351 287.2791,-851 370.9689,-899.6681 493.4284,-869.2877 545.4293,-852.6992"/>
</g>
<!-- Rancher MCM&#45;&#45;k3s -->
<g id="edge36" class="edge">
<title>Rancher MCM&#45;&#45;k3s</title>
<path fill="none" stroke="#000000" d="M141.4841,-599.1266C160.3453,-640.5707 212.2954,-742.8403 287.2791,-797 305.3673,-810.0649 329.9128,-816.915 348.4433,-820.4404"/>
</g>
<!-- rancher -->
<g id="node29" class="node">
<title>rancher</title>
<ellipse fill="#ffcccc" stroke="#000000" cx="133.6396" cy="-1012" rx="37.0935" ry="18"/>
<text text-anchor="middle" x="133.6396" y="-1008.3" font-family="Times,serif" font-size="14.00" fill="#000000">rancher</text>
</g>
<!-- external without s390x binary -->
<g id="node30" class="node">
<title>external without s390x binary</title>
<ellipse fill="#ccccff" stroke="#000000" cx="133.6396" cy="-958" rx="117.7793" ry="18"/>
<text text-anchor="middle" x="133.6396" y="-954.3" font-family="Times,serif" font-size="14.00" fill="#000000">external without s390x binary</text>
</g>
<!-- external with s390x binary -->
<g id="node31" class="node">
<title>external with s390x binary</title>
<ellipse fill="#ccffcc" stroke="#000000" cx="133.6396" cy="-904" rx="106.6812" ry="18"/>
<text text-anchor="middle" x="133.6396" y="-900.3" font-family="Times,serif" font-size="14.00" fill="#000000">external with s390x binary</text>
</g>
</g>
</svg>
